<svg width="325" height="55" viewBox="0 0 325 55" fill="none" xmlns="http://www.w3.org/2000/svg">
    <g filter="url(#filter0_d_1_2)">
        <path
            d="M36.3184 35.6992C36.3184 35.9336 36.3066 36.1094 36.2832 36.2266C36.166 36.2734 36.0723 36.3438 36.002 36.4375C35.9316 36.5078 35.8145 36.5312 35.6504 36.5078C35.6035 36.8594 35.4863 37.1523 35.2988 37.3867C35.1113 37.6211 34.9121 37.832 34.7012 38.0195C34.5137 38.2305 34.3262 38.4414 34.1387 38.6523C33.9512 38.8867 33.834 39.1797 33.7871 39.5312C33.4355 39.7188 33.084 39.9648 32.7324 40.2695C32.4043 40.5977 32.1113 40.8203 31.8535 40.9375C31.666 41.0312 31.4668 41.1016 31.2559 41.1484C31.0449 41.2188 30.834 41.3008 30.623 41.3945C29.9434 41.6992 29.2402 42.0156 28.5137 42.3438C27.8105 42.6719 27.0723 42.8359 26.2988 42.8359H26.0527C25.959 42.9297 25.8418 42.9883 25.7012 43.0117C25.5605 43.0586 25.4199 43.0938 25.2793 43.1172C25.1387 43.1406 24.998 43.1758 24.8574 43.2227C24.7168 43.2695 24.6113 43.3398 24.541 43.4336C24.2832 43.3398 24.002 43.293 23.6973 43.293H23.4512C23.0527 43.3867 22.6777 43.457 22.3262 43.5039C21.9746 43.5508 21.5996 43.5742 21.2012 43.5742C20.498 43.5742 19.7949 43.5273 19.0918 43.4336C18.3887 43.3398 17.6855 43.2578 16.9824 43.1875C16.5371 42.8359 16.1738 42.3906 15.8926 41.8516C15.6113 41.3359 15.4707 40.7852 15.4707 40.1992C15.4707 39.7539 15.5645 39.332 15.752 38.9336C15.9395 38.5586 16.1855 38.2188 16.4902 37.9141H16.5957C16.8066 37.9141 17.0176 37.8672 17.2285 37.7734C17.4629 37.6797 17.6855 37.6328 17.8965 37.6328C18.1309 37.6328 18.3184 37.7266 18.459 37.9141C18.623 38.1016 18.7402 38.3242 18.8105 38.582C18.9043 38.8398 18.9629 39.0977 18.9863 39.3555C19.0098 39.6367 19.0215 39.8594 19.0215 40.0234C19.2793 40.1406 19.5488 40.2109 19.8301 40.2344C20.1348 40.2578 20.4395 40.2695 20.7441 40.2695C21.0488 40.2695 21.3887 40.2461 21.7637 40.1992C22.1387 40.1758 22.5137 40.1172 22.8887 40.0234C23.2871 39.9531 23.6621 39.8594 24.0137 39.7422C24.3887 39.625 24.7051 39.4727 24.9629 39.2852C26.252 39.168 27.3887 38.875 28.373 38.4062C29.3574 37.9375 30.4004 37.3867 31.502 36.7539C31.5488 36.4961 31.6426 36.2969 31.7832 36.1562C31.9473 35.9922 32.0293 35.7578 32.0293 35.4531C32.0293 35.4062 32.0176 35.3594 31.9941 35.3125C31.9941 35.2422 31.9941 35.1836 31.9941 35.1367C31.5254 34.5508 31.0332 34.0352 30.5176 33.5898C30.0254 33.1445 29.3809 32.8516 28.584 32.7109C28.4902 32.5 28.3379 32.3477 28.127 32.2539C27.916 32.1367 27.6934 32.0312 27.459 31.9375C27.2246 31.8438 27.002 31.75 26.791 31.6562C26.5801 31.5391 26.4277 31.3516 26.334 31.0938C25.7012 30.9766 25.0449 30.8359 24.3652 30.6719C23.709 30.4844 23.1465 30.1562 22.6777 29.6875C22.3027 29.6641 21.9395 29.5938 21.5879 29.4766C21.2598 29.3359 20.9316 29.207 20.6035 29.0898C20.2754 28.9492 19.9355 28.832 19.584 28.7383C19.2324 28.6211 18.8691 28.5625 18.4941 28.5625C18.4004 28.3984 18.2715 28.2695 18.1074 28.1758C17.9434 28.082 17.7559 28 17.5449 27.9297C17.3574 27.8594 17.1699 27.7891 16.9824 27.7188C16.8184 27.625 16.6895 27.4961 16.5957 27.332C16.502 27.3555 16.4316 27.4023 16.3848 27.4727C16.3379 27.543 16.2559 27.5781 16.1387 27.5781H15.998C15.9512 27.4375 15.8574 27.3438 15.7168 27.2969C15.5762 27.2266 15.4941 27.0977 15.4707 26.9102C15.0488 26.8867 14.6621 26.8047 14.3105 26.6641C13.9824 26.5234 13.666 26.3711 13.3613 26.207C13.0801 26.0195 12.7871 25.8438 12.4824 25.6797C12.1777 25.5156 11.8379 25.3867 11.4629 25.293C11.2285 25.1055 11.0059 24.9062 10.7949 24.6953C10.6074 24.4609 10.3613 24.3438 10.0566 24.3438C9.98633 24.3438 9.85742 24.3672 9.66992 24.4141C9.62305 23.9922 9.44727 23.6992 9.14258 23.5352C8.83789 23.3477 8.50977 23.1836 8.1582 23.043C7.92383 22.4336 7.60742 21.8945 7.20898 21.4258C6.81055 20.957 6.37695 20.5234 5.9082 20.125C5.95508 19.9844 5.97852 19.8789 5.97852 19.8086C5.97852 19.5742 5.91992 19.375 5.80273 19.2109C5.68555 19.0234 5.55664 18.8711 5.41602 18.7539C5.08789 17.6992 4.92383 16.668 4.92383 15.6602C4.92383 14.2539 5.24023 12.9531 5.87305 11.7578C6.48242 10.5391 7.45508 9.625 8.79102 9.01562C8.81445 8.82812 8.87305 8.66406 8.9668 8.52344C9.08398 8.38281 9.1543 8.21875 9.17773 8.03125C9.38867 8.03125 9.55273 7.98438 9.66992 7.89062C9.78711 7.79688 9.89258 7.70312 9.98633 7.60938C10.1035 7.49219 10.2207 7.38672 10.3379 7.29297C10.4551 7.19922 10.6074 7.14062 10.7949 7.11719C11.6855 6.34375 12.6348 5.72266 13.6426 5.25391C14.6504 4.76172 15.6816 4.25781 16.7363 3.74219C16.9473 3.64844 17.123 3.47266 17.2637 3.21484H17.4746C17.709 3.21484 17.8848 3.16797 18.002 3.07422C18.1426 2.95703 18.3418 2.92188 18.5996 2.96875C18.6934 2.82812 18.8105 2.73438 18.9512 2.6875C19.1152 2.64062 19.2676 2.60547 19.4082 2.58203C19.5723 2.53516 19.7246 2.47656 19.8652 2.40625C20.0059 2.33594 20.0996 2.23047 20.1465 2.08984H20.3926C20.791 2.08984 21.1777 2.03125 21.5527 1.91406C21.9277 1.77344 22.3027 1.62109 22.6777 1.45703H22.9238C23.3926 1.45703 23.8262 1.375 24.2246 1.21094C24.6465 1.02344 25.0918 0.894531 25.5605 0.824219C25.748 0.777344 25.9355 0.765625 26.123 0.789062C26.3105 0.8125 26.498 0.824219 26.6855 0.824219C26.8027 0.824219 26.9434 0.8125 27.1074 0.789062C27.2715 0.765625 27.3887 0.695312 27.459 0.578125H27.5293C27.6699 0.578125 27.752 0.625 27.7754 0.71875C27.7988 0.8125 27.8691 0.859375 27.9863 0.859375C28.1504 0.859375 28.3145 0.835937 28.4785 0.789062C28.6426 0.742188 28.8066 0.71875 28.9707 0.71875C29.6738 0.71875 30.3652 0.789062 31.0449 0.929688C31.748 1.07031 32.4395 1.19922 33.1191 1.31641C33.166 1.59766 33.2832 1.79688 33.4707 1.91406C33.6816 2.03125 33.9043 2.13672 34.1387 2.23047V2.37109C34.1387 2.55859 34.1855 2.71094 34.2793 2.82812C34.1855 3.15625 34.0215 3.40234 33.7871 3.56641C33.5527 3.73047 33.2949 3.87109 33.0137 3.98828C33.1309 4.08203 33.2012 4.21094 33.2246 4.375C33.248 4.53906 33.2598 4.69141 33.2598 4.83203V5.25391L33.084 5.21875C32.709 5.21875 32.5215 5.39453 32.5215 5.74609C32.2168 5.55859 31.877 5.44141 31.502 5.39453C31.1504 5.34766 30.7988 5.32422 30.4473 5.32422C29.9785 5.32422 29.4863 5.34766 28.9707 5.39453C28.4551 5.41797 27.9512 5.40625 27.459 5.35938C27.2715 5.59375 27.0371 5.76953 26.7559 5.88672C26.4746 5.98047 26.1934 6.02734 25.9121 6.02734C25.6074 6.02734 25.3145 5.96875 25.0332 5.85156C24.752 5.71094 24.5527 5.51172 24.4355 5.25391C24.3184 5.20703 24.2129 5.18359 24.1191 5.18359H23.8027C23.4277 5.18359 23.0527 5.23047 22.6777 5.32422C22.3262 5.39453 21.9629 5.48828 21.5879 5.60547C21.2129 5.69922 20.8379 5.80469 20.4629 5.92188C20.1113 6.01562 19.748 6.07422 19.373 6.09766C19.2324 6.28516 19.0449 6.41406 18.8105 6.48438C18.5762 6.55469 18.3887 6.68359 18.248 6.87109C17.7559 6.96484 17.3105 7.12891 16.9121 7.36328C16.5137 7.57422 16.127 7.80859 15.752 8.06641L14.6621 8.80469C14.3105 9.03906 13.9121 9.23828 13.4668 9.40234C13.1387 9.75391 12.834 10.0352 12.5527 10.2461C12.2715 10.457 11.9082 10.6445 11.4629 10.8086C11.1816 10.9023 11.0176 11.043 10.9707 11.2305C10.9473 11.418 10.8535 11.6055 10.6895 11.793C10.5488 11.957 10.373 12.0859 10.1621 12.1797C9.97461 12.25 9.81055 12.3789 9.66992 12.5664C9.55273 12.7305 9.45898 12.9297 9.38867 13.1641C9.3418 13.375 9.2832 13.5859 9.21289 13.7969C9.14258 14.0078 9.06055 14.2188 8.9668 14.4297C8.87305 14.6172 8.73242 14.7812 8.54492 14.9219C8.54492 15.0156 8.5332 15.1094 8.50977 15.2031C8.50977 15.2969 8.50977 15.3789 8.50977 15.4492C8.50977 15.7773 8.54492 16.1172 8.61523 16.4688C8.70898 16.7969 8.76758 17.125 8.79102 17.4531C9.25977 18.2734 9.81055 19.0234 10.4434 19.7031C11.0762 20.3594 11.7559 20.9688 12.4824 21.5312C13.209 22.0938 13.959 22.6211 14.7324 23.1133C15.5293 23.6055 16.3145 24.0859 17.0879 24.5547C17.3691 24.5312 17.627 24.5664 17.8613 24.6602C18.0957 24.7305 18.3418 24.7773 18.5996 24.8008C18.8809 25.0117 19.209 25.1758 19.584 25.293L20.709 25.6445C21.084 25.7617 21.4473 25.9023 21.7988 26.0664C22.1504 26.207 22.4434 26.4062 22.6777 26.6641C22.7949 26.6875 22.9004 26.7227 22.9941 26.7695C23.0879 26.793 23.1934 26.8047 23.3105 26.8047C23.4512 26.8047 23.5332 26.7578 23.5566 26.6641C24.6113 27.0625 25.6426 27.5078 26.6504 28C27.6582 28.4688 28.7246 28.832 29.8496 29.0898C30.2949 29.4648 30.7871 29.793 31.3262 30.0742C31.8652 30.3555 32.4043 30.6484 32.9434 30.9531C33.4824 31.2344 33.998 31.5508 34.4902 31.9023C34.9824 32.2305 35.416 32.6289 35.791 33.0977C35.8379 33.543 35.9316 33.9766 36.0723 34.3984C36.2363 34.7969 36.3184 35.2305 36.3184 35.6992ZM61.3496 13.9023C61.3027 14.1836 61.2324 14.4297 61.1387 14.6406C61.0684 14.8281 61.0566 15.0859 61.1035 15.4141C60.8691 15.4375 60.6816 15.5195 60.541 15.6602C60.4238 15.7773 60.3184 15.918 60.2246 16.082C60.1543 16.2461 60.0723 16.4219 59.9785 16.6094C59.9082 16.7734 59.8145 16.9258 59.6973 17.0664C59.8848 17.9102 59.9902 18.7656 60.0137 19.6328C60.0371 20.5 60.0957 21.3555 60.1895 22.1992C60.3066 23.2773 60.4824 24.3438 60.7168 25.3984C60.9746 26.4297 61.1035 27.4844 61.1035 28.5625C61.1035 28.8906 61.0918 29.1953 61.0684 29.4766C61.0684 29.7578 61.0684 30.0508 61.0684 30.3555C61.0684 30.543 61.0684 30.7422 61.0684 30.9531C61.0918 31.1406 61.1035 31.3281 61.1035 31.5156C61.1035 32.1953 61.0098 32.875 60.8223 33.5547C60.6582 34.2344 60.5293 34.9141 60.4355 35.5938C60.1543 35.8516 59.9082 36.1328 59.6973 36.4375C59.5098 36.7422 59.3105 37.0234 59.0996 37.2812C58.8887 37.5391 58.6426 37.7617 58.3613 37.9492C58.0801 38.1602 57.7285 38.3008 57.3066 38.3711C57.2363 38.6055 57.0957 38.7812 56.8848 38.8984C56.6973 39.0156 56.5332 39.1797 56.3926 39.3906H56.3223C55.7363 39.3906 55.2324 39.3086 54.8105 39.1445C54.3887 38.9805 53.9902 38.793 53.6152 38.582C53.2637 38.3711 52.9004 38.1484 52.5254 37.9141C52.1504 37.6797 51.7168 37.4922 51.2246 37.3516C50.5684 36.8125 49.9707 36.2266 49.4316 35.5938C48.8926 34.9375 48.2832 34.3516 47.6035 33.8359C47.4395 33.3672 47.2168 32.9805 46.9355 32.6758C46.6777 32.3711 46.4199 32.0195 46.1621 31.6211C46.0449 31.457 45.9512 31.3047 45.8809 31.1641C45.834 31.0234 45.7637 30.8594 45.6699 30.6719C45.5996 30.4844 45.4824 30.3555 45.3184 30.2852C45.1777 30.2148 45.0488 30.1328 44.9316 30.0391C44.7441 29.3125 44.4746 28.6445 44.123 28.0352C43.7715 27.4258 43.3613 26.8398 42.8926 26.2773C42.752 26.5352 42.6348 26.8164 42.541 27.1211C42.4707 27.4023 42.4004 27.6953 42.3301 28C42.2598 28.2812 42.166 28.5742 42.0488 28.8789C41.9551 29.1602 41.8262 29.418 41.6621 29.6523V29.7578C41.6621 29.875 41.709 29.9453 41.8027 29.9688C41.8965 29.9922 41.9434 30.0625 41.9434 30.1797C41.9434 30.2031 41.9316 30.2266 41.9082 30.25C41.9082 30.2734 41.9082 30.2969 41.9082 30.3203C41.791 30.4141 41.6973 30.5312 41.627 30.6719C41.5801 30.8125 41.4629 30.8945 41.2754 30.918C41.2988 31.0352 41.3105 31.1523 41.3105 31.2695V31.5859C41.3105 32.2656 41.2285 32.9453 41.0645 33.625C40.9238 34.3047 40.8535 34.9961 40.8535 35.6992V36.1562C40.8535 36.3203 40.8652 36.4727 40.8887 36.6133C40.9355 36.7539 41.0059 36.8945 41.0996 37.0352C41.1934 37.1758 41.2402 37.3047 41.2402 37.4219C41.2402 37.5859 41.1699 37.7383 41.0293 37.8789C41.1934 37.9961 41.3809 38.125 41.5918 38.2656C41.8027 38.4062 41.9902 38.5586 42.1543 38.7227C42.3418 38.9102 42.4941 39.0977 42.6113 39.2852C42.7285 39.4961 42.7871 39.7188 42.7871 39.9531C42.7871 40.3516 42.6582 40.6328 42.4004 40.7969C42.1426 40.9609 41.8262 41.0898 41.4512 41.1836C41.0996 41.2773 40.7246 41.3594 40.3262 41.4297C39.9512 41.5234 39.6348 41.6758 39.377 41.8867H39.2715C38.9902 41.8867 38.7793 41.8047 38.6387 41.6406C38.498 41.4766 38.2871 41.3945 38.0059 41.3945C37.5605 40.668 37.2559 39.8477 37.0918 38.9336C36.9277 38.043 36.8457 37.1875 36.8457 36.3672C36.8457 35.3594 36.9395 34.3516 37.127 33.3438C37.291 32.3359 37.502 31.3398 37.7598 30.3555C37.9941 29.3711 38.252 28.3984 38.5332 27.4375C38.8379 26.4531 39.1191 25.4688 39.377 24.4844L39.4121 24.3789C39.4121 24.2617 39.377 24.1797 39.3066 24.1328C39.2598 24.0859 39.2363 24.0156 39.2363 23.9219C39.2363 23.875 39.248 23.8516 39.2715 23.8516C39.3418 23.6172 39.4121 23.3945 39.4824 23.1836C39.5762 22.9727 39.6465 22.7383 39.6934 22.4805C39.834 21.8242 39.9277 21.1562 39.9746 20.4766C40.0449 19.7734 40.0801 19.082 40.0801 18.4023C40.1035 17.7227 40.127 17.043 40.1504 16.3633C40.1973 15.6602 40.2793 14.9688 40.3965 14.2891C40.584 14.1016 40.7598 13.9023 40.9238 13.6914C41.0879 13.4805 41.2988 13.293 41.5566 13.1289C42.0254 13.1523 42.4941 13.2227 42.9629 13.3398C43.4316 13.457 43.877 13.6445 44.2988 13.9023C44.5801 14.9102 44.7676 15.918 44.8613 16.9258C44.9785 17.9336 45.166 18.9414 45.4238 19.9492V20.0547C45.4238 20.1719 45.4824 20.2305 45.5996 20.2305C45.7402 20.207 45.8457 20.2422 45.916 20.3359C45.8691 20.4062 45.834 20.4883 45.8105 20.582C45.8105 20.6758 45.8105 20.7695 45.8105 20.8633V21.4609C45.8574 21.6484 45.916 21.8477 45.9863 22.0586C46.0566 22.2695 46.209 22.3984 46.4434 22.4453C46.5605 23.1953 46.7363 23.8867 46.9707 24.5195C47.2051 25.1523 47.4746 25.7617 47.7793 26.3477C48.084 26.9336 48.4121 27.5195 48.7637 28.1055C49.1152 28.668 49.4785 29.2656 49.8535 29.8984C50.4395 30.3438 50.9434 30.8594 51.3652 31.4453C51.7871 32.0078 52.209 32.5586 52.6309 33.0977C53.0762 33.6133 53.5684 34.0703 54.1074 34.4688C54.6699 34.8672 55.3965 35.1133 56.2871 35.207C56.4043 35.1133 56.4863 34.9844 56.5332 34.8203L56.709 34.3281C56.7793 34.1641 56.8496 34.0234 56.9199 33.9062C57.0137 33.7656 57.1426 33.6602 57.3066 33.5898C57.3535 32.9336 57.4004 32.2656 57.4473 31.5859C57.5176 30.9062 57.6699 30.2617 57.9043 29.6523C57.7871 29.4414 57.7285 29.1836 57.7285 28.8789C57.7285 28.6445 57.7402 28.4219 57.7637 28.2109C57.8105 28 57.834 27.7891 57.834 27.5781C57.834 27.1328 57.7402 26.7695 57.5527 26.4883C57.5527 26.3242 57.5645 26.1602 57.5879 25.9961C57.6113 25.8086 57.6816 25.6328 57.7988 25.4688C57.6113 25 57.459 24.5078 57.3418 23.9922C57.248 23.4766 57.2012 22.9492 57.2012 22.4102C57.2012 22.1055 57.2363 21.7891 57.3066 21.4609C57.166 21.1094 57.0723 20.6992 57.0254 20.2305L56.8848 18.7891C56.8379 18.2969 56.7676 17.8398 56.6738 17.418C56.5801 16.9961 56.4043 16.6562 56.1465 16.3984C56.2871 16.1875 56.3574 15.9414 56.3574 15.6602C56.3574 15.1914 56.2871 14.7461 56.1465 14.3242C56.0059 13.9023 55.9355 13.457 55.9355 12.9883C55.9355 12.6602 56.0059 12.332 56.1465 12.0039C56.6621 12.0273 57.166 12.0859 57.6582 12.1797C58.1738 12.25 58.6777 12.2852 59.1699 12.2852C59.3105 12.4727 59.4746 12.625 59.6621 12.7422C59.8496 12.8594 60.0488 12.9766 60.2598 13.0938C60.4707 13.1875 60.6699 13.293 60.8574 13.4102C61.0684 13.5273 61.2324 13.6914 61.3496 13.9023ZM91.0215 34.4336C90.9512 34.7617 90.7988 35.0312 90.5645 35.2422C90.3535 35.4297 90.0957 35.582 89.791 35.6992C89.4863 35.8164 89.1699 35.8984 88.8418 35.9453C88.5371 35.9688 88.2559 35.9805 87.998 35.9805C87.8809 35.9805 87.7637 35.9805 87.6465 35.9805C87.5527 35.957 87.4473 35.9453 87.3301 35.9453C87.2129 35.9453 87.1543 36.0039 87.1543 36.1211C87.1543 36.2383 87.0957 36.3203 86.9785 36.3672C86.8613 36.3203 86.7441 36.2852 86.627 36.2617C86.5098 36.2383 86.3926 36.2266 86.2754 36.2266C86.1113 36.2266 85.9473 36.2383 85.7832 36.2617C85.6426 36.2852 85.502 36.2969 85.3613 36.2969C85.1738 36.2969 85.0332 36.2734 84.9395 36.2266C84.8691 36.1797 84.7988 36.1328 84.7285 36.0859C84.6816 36.0156 84.623 35.9453 84.5527 35.875C84.5059 35.8047 84.4238 35.7461 84.3066 35.6992C84.1426 35.6289 84.002 35.6172 83.8848 35.6641C83.791 35.7109 83.6387 35.6406 83.4277 35.4531C83.1465 35.2188 82.9004 34.9375 82.6895 34.6094C82.502 34.2578 82.3145 33.8945 82.127 33.5195C81.9395 33.1445 81.7402 32.7695 81.5293 32.3945C81.3184 32.0195 81.0723 31.6914 80.791 31.4102H80.5098C80.0879 31.4102 79.7949 31.5859 79.6309 31.9375C79.5137 31.8672 79.3965 31.7852 79.2793 31.6914C79.1621 31.5742 79.0332 31.4805 78.8926 31.4102C78.3535 31.5742 77.791 31.7148 77.2051 31.832C76.6191 31.9492 76.0332 32.0078 75.4473 32.0078H74.9551C74.8145 32.0078 74.6621 31.9844 74.498 31.9375C74.2637 32.0312 74.0527 32.1484 73.8652 32.2891C73.6777 32.4062 73.4668 32.4648 73.2324 32.4648C73.0918 32.4648 72.9277 32.418 72.7402 32.3242C72.5996 32.3242 72.5293 32.3828 72.5293 32.5C72.5527 32.6172 72.4824 32.6758 72.3184 32.6758H72.002C71.6738 32.6758 71.3457 32.6875 71.0176 32.7109C70.7129 32.7344 70.3965 32.7461 70.0684 32.7461C69.623 32.7461 69.166 32.6875 68.6973 32.5703C68.5801 32.6406 68.4512 32.6758 68.3105 32.6758C68.2168 32.7227 68.1465 32.8047 68.0996 32.9219C68.0527 33.0156 68.0059 33.1094 67.959 33.2031C67.9121 33.2734 67.8418 33.3438 67.748 33.4141C67.6777 33.4609 67.5723 33.4727 67.4316 33.4492C67.3848 33.7305 67.2676 33.9531 67.0801 34.1172C66.8926 34.2812 66.7988 34.5273 66.7988 34.8555C66.541 34.9961 66.3301 35.1719 66.166 35.3828C66.002 35.5938 65.8379 35.8164 65.6738 36.0508C65.5098 36.2852 65.334 36.5078 65.1465 36.7188C64.9824 36.9297 64.7715 37.0938 64.5137 37.2109C64.3965 37.3516 64.3613 37.5742 64.4082 37.8789C64.1504 38.0898 63.834 38.2773 63.459 38.4414C63.084 38.6055 62.7324 38.6875 62.4043 38.6875C61.7246 38.6875 61.2559 38.3242 60.998 37.5977C60.998 37.3633 61.0215 37.1172 61.0684 36.8594C61.0918 36.5781 61.1387 36.3203 61.209 36.0859C61.2793 35.8281 61.3848 35.6055 61.5254 35.418C61.666 35.207 61.8652 35.0547 62.123 34.9609C62.123 34.75 62.0527 34.6094 61.9121 34.5391C61.7715 34.4453 61.7129 34.293 61.7363 34.082C62.3691 33.7773 62.9199 33.3789 63.3887 32.8867C63.8574 32.3945 64.2793 31.8789 64.6543 31.3398C65.0527 30.7773 65.4512 30.2148 65.8496 29.6523C66.248 29.0898 66.6934 28.5859 67.1855 28.1406V27.4023C67.8887 26.6523 68.3457 25.8086 68.5566 24.8711C68.8145 24.8242 68.9785 24.707 69.0488 24.5195C69.1426 24.332 69.1895 24.1094 69.1895 23.8516C69.3066 23.8516 69.377 23.8047 69.4004 23.7109C69.4473 23.5938 69.5527 23.5586 69.7168 23.6055C69.9277 23.043 70.1621 22.5273 70.4199 22.0586C70.6777 21.5898 70.9355 21.1211 71.1934 20.6523C71.4512 20.1602 71.6738 19.6562 71.8613 19.1406C72.0723 18.625 72.2246 18.0508 72.3184 17.418C72.6465 17.3945 72.8223 17.2422 72.8457 16.9609C72.8926 16.6562 72.9395 16.3867 72.9863 16.1523C73.3379 15.8242 73.5957 15.4375 73.7598 14.9922C73.9473 14.5469 74.1113 14.0898 74.252 13.6211C74.3926 13.1289 74.5449 12.6484 74.709 12.1797C74.8965 11.6875 75.1543 11.2539 75.4824 10.8789V10.7734C75.4824 10.6562 75.4355 10.5859 75.3418 10.5625C75.248 10.5156 75.2012 10.4336 75.2012 10.3164C75.2246 10.293 75.2363 10.2695 75.2363 10.2461C75.5176 10.1289 75.7285 9.94141 75.8691 9.68359C76.0098 9.40234 76.2207 9.20312 76.502 9.08594C76.9941 9.48438 77.4277 9.73047 77.8027 9.82422C78.1777 9.89453 78.6699 9.95312 79.2793 10C79.584 10.3281 79.748 10.7266 79.7715 11.1953C79.8184 11.6406 79.9004 12.0859 80.0176 12.5312C80.2051 13.2812 80.4043 14.0195 80.6152 14.7461C80.8496 15.4492 81.0254 16.1758 81.1426 16.9258C81.2129 17.3711 81.3418 17.793 81.5293 18.1914C81.7168 18.5898 81.8457 19 81.916 19.4219C81.9629 19.75 81.9629 20.125 81.916 20.5469C81.8691 20.9453 81.916 21.2969 82.0566 21.6016L82.3027 22.1641C82.4199 22.4219 82.5137 22.6914 82.584 22.9727C82.6777 23.2539 82.7598 23.5352 82.8301 23.8164C83.0176 24.5195 83.1816 25.2812 83.3223 26.1016C83.4863 26.8984 83.7324 27.625 84.0605 28.2812C84.1777 28.5156 84.3535 28.6797 84.5879 28.7734C84.8457 28.8672 85.127 28.9375 85.4316 28.9844C85.7363 29.0078 86.0293 29.0195 86.3105 29.0195C86.6152 28.9961 86.873 28.9844 87.084 28.9844H87.4355C87.5762 28.9844 87.7168 29.0078 87.8574 29.0547C87.9512 29.2422 87.998 29.4062 87.998 29.5469C87.998 29.8281 87.9043 30.0508 87.7168 30.2148C87.5293 30.3789 87.4355 30.5664 87.4355 30.7773C87.4355 30.8945 87.4824 31.0234 87.5762 31.1641C87.4824 31.1406 87.3418 31.1289 87.1543 31.1289C86.6152 31.1289 86.0879 31.2227 85.5723 31.4102C85.7598 31.8086 86.0059 32.1484 86.3105 32.4297C86.6387 32.6875 86.9785 32.9336 87.3301 33.168C87.5645 32.9805 87.8105 32.8867 88.0684 32.8867C88.3496 32.8867 88.6074 32.957 88.8418 33.0977C89.0996 33.2148 89.3691 33.2734 89.6504 33.2734C89.8613 33.2734 90.0137 33.2383 90.1074 33.168C90.2949 33.3789 90.4473 33.6016 90.5645 33.8359C90.6816 34.0469 90.834 34.2461 91.0215 34.4336ZM80.0176 28.8086C79.9707 28.4102 79.8887 28.1289 79.7715 27.9648C79.6777 27.7773 79.5957 27.5547 79.5254 27.2969C79.4316 26.9688 79.3613 26.6172 79.3145 26.2422C79.291 25.8672 79.2441 25.5039 79.1738 25.1523C79.0098 24.3555 78.8223 23.5586 78.6113 22.7617C78.4238 21.9648 78.1777 21.1914 77.873 20.4414C77.9668 20.3008 78.0137 20.1719 78.0137 20.0547V19.9492C77.8027 19.7148 77.6504 19.4336 77.5566 19.1055C77.4629 18.7539 77.3691 18.4141 77.2754 18.0859C77.2051 17.7344 77.0996 17.418 76.959 17.1367C76.8418 16.832 76.6426 16.5859 76.3613 16.3984C76.291 16.5391 76.2559 16.7031 76.2559 16.8906C76.2559 17.0547 76.2676 17.207 76.291 17.3477C76.3379 17.4883 76.3613 17.6406 76.3613 17.8047C76.127 17.9219 75.9512 18.1094 75.834 18.3672C75.7402 18.6016 75.5762 18.7891 75.3418 18.9297C75.1543 19.6797 74.8848 20.3945 74.5332 21.0742C74.1816 21.7305 73.8066 22.3867 73.4082 23.043C73.0332 23.6992 72.6699 24.3672 72.3184 25.0469C71.9668 25.7031 71.6855 26.3945 71.4746 27.1211C71.1699 27.332 70.959 27.6016 70.8418 27.9297C70.748 28.2578 70.7012 28.5859 70.7012 28.9141C70.9121 29.0312 71.1465 29.1016 71.4043 29.125C71.6855 29.125 71.9551 29.125 72.2129 29.125C72.4707 29.125 72.7168 29.1484 72.9512 29.1953C73.1855 29.2422 73.3965 29.3594 73.584 29.5469C73.8887 29.4531 74.2168 29.3945 74.5684 29.3711C74.9434 29.3242 75.248 29.2188 75.4824 29.0547C75.9512 29.2188 76.4551 29.3008 76.9941 29.3008C77.2754 29.3008 77.5449 29.2773 77.8027 29.2305C78.084 29.1836 78.3535 29.125 78.6113 29.0547C78.8223 29.1016 78.9863 29.1836 79.1035 29.3008C79.2207 29.3945 79.3965 29.4297 79.6309 29.4062C79.748 29.3125 79.8184 29.2188 79.8418 29.125C79.8652 29.0078 79.9238 28.9023 80.0176 28.8086ZM118.197 17.4531C118.197 17.7812 118.186 18.1094 118.162 18.4375C118.139 18.7656 118.104 19.0938 118.057 19.4219C117.893 19.6562 117.729 19.8672 117.564 20.0547C117.424 20.2188 117.33 20.4297 117.283 20.6875C117.025 20.875 116.732 21.1328 116.404 21.4609C116.1 21.7891 115.971 22.1172 116.018 22.4453H115.525C115.244 22.8672 114.916 23.2305 114.541 23.5352C114.166 23.8398 113.768 24.1328 113.346 24.4141L112.115 25.2227C111.717 25.4805 111.342 25.7852 110.99 26.1367C110.803 26.1602 110.65 26.1953 110.533 26.2422C110.416 26.2891 110.264 26.3008 110.076 26.2773C109.35 26.7461 108.588 27.1562 107.791 27.5078C107.018 27.8594 106.232 28.2109 105.436 28.5625C104.662 28.8906 103.889 29.2422 103.115 29.6172C102.342 29.9922 101.604 30.4258 100.9 30.918C100.83 30.8945 100.736 30.8828 100.619 30.8828C100.408 30.8828 100.197 30.918 99.9863 30.9883C99.7754 31.0352 99.5645 31.0586 99.3535 31.0586C99.2598 31.0586 99.1309 31.0469 98.9668 31.0234C98.8262 31 98.7207 30.9648 98.6504 30.918C98.5332 30.8477 98.4277 30.7422 98.334 30.6016C98.2402 30.4609 98.1699 30.3086 98.123 30.1445C98.0762 29.957 98.041 29.7812 98.0176 29.6172C97.9941 29.4531 97.9824 29.3125 97.9824 29.1953C97.9824 29.0547 97.9941 28.9023 98.0176 28.7383C98.041 28.5742 98.0762 28.4219 98.123 28.2812C98.8027 28.2344 99.4824 28.0586 100.162 27.7539C100.865 27.4492 101.533 27.1562 102.166 26.875C102.33 26.8047 102.459 26.7227 102.553 26.6289C102.67 26.5117 102.787 26.418 102.904 26.3477C103.021 26.2539 103.15 26.1719 103.291 26.1016C103.432 26.0312 103.607 25.9961 103.818 25.9961H103.924C105.4 25.3164 106.842 24.5781 108.248 23.7812C109.678 22.9844 111.096 22.1758 112.502 21.3555C112.572 21.1445 112.678 20.9336 112.818 20.7227C112.982 20.5117 113.135 20.3125 113.275 20.125C113.416 19.9141 113.545 19.7031 113.662 19.4922C113.779 19.2812 113.838 19.0703 113.838 18.8594C113.838 18.4375 113.639 18.0859 113.24 17.8047H113.1C112.818 17.8047 112.572 17.7695 112.361 17.6992C112.15 17.6055 111.951 17.5234 111.764 17.4531C111.576 17.3594 111.365 17.2891 111.131 17.2422C110.896 17.1719 110.627 17.1484 110.322 17.1719C110.205 17.0781 110.018 16.9961 109.76 16.9258C109.502 16.8555 109.291 16.8203 109.127 16.8203C108.283 16.8203 107.451 16.8789 106.631 16.9961C105.811 17.0898 104.99 17.1484 104.17 17.1719C103.959 17.2891 103.76 17.3945 103.572 17.4883C103.385 17.582 103.162 17.6289 102.904 17.6289C102.787 17.6289 102.682 17.6289 102.588 17.6289C102.494 17.6055 102.389 17.582 102.271 17.5586C101.826 17.7461 101.322 17.9102 100.76 18.0508C100.197 18.168 99.6348 18.3203 99.0723 18.5078C98.5332 18.6719 98.0293 18.8828 97.5605 19.1406C97.0918 19.3984 96.7285 19.75 96.4707 20.1953C96.4707 20.3125 96.4941 20.418 96.541 20.5117C96.5879 20.582 96.6113 20.6758 96.6113 20.793V20.9336C96.4707 21.0742 96.377 21.2383 96.3301 21.4258C96.2832 21.5898 96.248 21.7656 96.2246 21.9531C96.2012 22.1172 96.166 22.293 96.1191 22.4805C96.0957 22.6445 96.0137 22.8086 95.873 22.9727C95.9668 23.3242 96.0137 23.7109 96.0137 24.1328C96.0137 24.6016 95.9785 25.0703 95.9082 25.5391C95.8613 26.0078 95.8379 26.4766 95.8379 26.9453C95.8379 27.3906 95.8848 27.7891 95.9785 28.1406C95.8379 28.2812 95.7793 28.4922 95.8027 28.7734C95.8262 29.0547 95.7676 29.2656 95.627 29.4062C95.627 29.5938 95.6738 29.7227 95.7676 29.793C95.8848 29.8633 95.9551 29.9805 95.9785 30.1445C95.8848 30.543 95.8379 30.9766 95.8379 31.4453C95.8379 32.125 95.9082 32.8164 96.0488 33.5195C96.2129 34.2227 96.4004 34.9141 96.6113 35.5938C96.9863 35.4766 97.3848 35.3828 97.8066 35.3125C98.252 35.2188 98.6738 35.1719 99.0723 35.1719C99.1426 35.1719 99.2129 35.1836 99.2832 35.207C99.3535 35.207 99.4238 35.207 99.4941 35.207C99.541 35.4648 99.6348 35.6992 99.7754 35.9102C99.916 36.1211 100.045 36.3555 100.162 36.6133C100.045 36.7773 99.9395 36.9062 99.8457 37C99.7754 37.1172 99.7402 37.2695 99.7402 37.457C99.4121 37.4805 99.1426 37.5625 98.9316 37.7031C98.7207 37.8672 98.4863 38.043 98.2285 38.2305H98.0879C97.6895 38.2305 97.3613 38.3008 97.1035 38.4414C96.8457 38.6055 96.5527 38.7812 96.2246 38.9688C95.9434 38.8516 95.6621 38.793 95.3809 38.793C95.0762 38.793 94.7715 38.8516 94.4668 38.9688C94.0918 38.8047 93.7871 38.5469 93.5527 38.1953C93.3184 37.8672 93.1191 37.4922 92.9551 37.0703C92.791 36.6719 92.6387 36.2617 92.498 35.8398C92.3809 35.418 92.2402 35.0312 92.0762 34.6797V34.1172C92.0762 33.5781 92.0293 33.0625 91.9355 32.5703C91.8652 32.0547 91.8301 31.5273 91.8301 30.9883C91.8301 30.7773 91.8418 30.5547 91.8652 30.3203C91.9121 30.0859 91.9824 29.8633 92.0762 29.6523C92.0293 29.4414 92.0059 29.2422 92.0059 29.0547V28.3867C92.0059 27.6836 92.0293 26.9805 92.0762 26.2773C92.1465 25.5742 92.1816 24.8711 92.1816 24.168C92.1816 23.6523 92.1465 23.125 92.0762 22.5859C91.959 22.6328 91.8535 22.6797 91.7598 22.7266C91.666 22.7734 91.5605 22.7969 91.4434 22.7969C91.3262 22.7969 91.209 22.7852 91.0918 22.7617C90.998 22.7383 90.9043 22.7148 90.8105 22.6914C90.5762 22.4805 90.4121 22.2227 90.3184 21.918C90.2246 21.6133 90.0957 21.332 89.9316 21.0742C89.9316 20.6289 90.002 20.2656 90.1426 19.9844C90.2598 19.6797 90.4121 19.4102 90.5996 19.1758C90.7871 18.918 90.9746 18.6719 91.1621 18.4375C91.373 18.2031 91.5488 17.9102 91.6895 17.5586H91.8301C92.2051 17.5586 92.5801 17.4414 92.9551 17.207C93.3301 16.9492 93.752 16.8203 94.2207 16.8203C94.3848 16.6094 94.6074 16.4336 94.8887 16.293C95.1699 16.1289 95.4629 16 95.7676 15.9062C96.0957 15.8125 96.4121 15.7539 96.7168 15.7305C97.0449 15.6836 97.3496 15.6602 97.6309 15.6602C97.7246 15.4961 97.8652 15.3906 98.0527 15.3438C98.2402 15.2734 98.4277 15.2148 98.6152 15.168C98.8262 15.0977 99.0137 15.0391 99.1777 14.9922C99.3652 14.9219 99.5176 14.8047 99.6348 14.6406C99.8223 14.6875 99.998 14.7109 100.162 14.7109C100.467 14.7109 100.76 14.6758 101.041 14.6055C101.322 14.5117 101.604 14.418 101.885 14.3242C102.166 14.207 102.447 14.1016 102.729 14.0078C103.033 13.9141 103.35 13.8672 103.678 13.8672C103.795 13.8672 103.912 13.8789 104.029 13.9023C104.146 13.9023 104.264 13.9023 104.381 13.9023C104.568 13.9023 104.674 13.832 104.697 13.6914C104.744 13.5508 104.826 13.4453 104.943 13.375C105.014 13.3984 105.143 13.4102 105.33 13.4102C105.799 13.4102 106.256 13.375 106.701 13.3047C107.146 13.2109 107.604 13.1641 108.072 13.1641C108.283 13.1641 108.494 13.1758 108.705 13.1992C108.916 13.2227 109.127 13.2812 109.338 13.375C109.385 13.3047 109.432 13.2461 109.479 13.1992C109.525 13.1523 109.561 13.0938 109.584 13.0234C110.732 13.0938 111.811 13.3281 112.818 13.7266C113.85 14.125 114.916 14.4766 116.018 14.7812C116.158 14.9922 116.322 15.1797 116.51 15.3438L117.107 15.8359C117.318 16 117.518 16.1641 117.705 16.3281C117.893 16.4922 118.057 16.6914 118.197 16.9258V17.4531ZM146.814 17.4531C146.814 17.7812 146.803 18.1094 146.779 18.4375C146.756 18.7656 146.721 19.0938 146.674 19.4219C146.51 19.6562 146.346 19.8672 146.182 20.0547C146.041 20.2188 145.947 20.4297 145.9 20.6875C145.643 20.875 145.35 21.1328 145.021 21.4609C144.717 21.7891 144.588 22.1172 144.635 22.4453H144.143C143.861 22.8672 143.533 23.2305 143.158 23.5352C142.783 23.8398 142.385 24.1328 141.963 24.4141L140.732 25.2227C140.334 25.4805 139.959 25.7852 139.607 26.1367C139.42 26.1602 139.268 26.1953 139.15 26.2422C139.033 26.2891 138.881 26.3008 138.693 26.2773C137.967 26.7461 137.205 27.1562 136.408 27.5078C135.635 27.8594 134.85 28.2109 134.053 28.5625C133.279 28.8906 132.506 29.2422 131.732 29.6172C130.959 29.9922 130.221 30.4258 129.518 30.918C129.447 30.8945 129.354 30.8828 129.236 30.8828C129.025 30.8828 128.814 30.918 128.604 30.9883C128.393 31.0352 128.182 31.0586 127.971 31.0586C127.877 31.0586 127.748 31.0469 127.584 31.0234C127.443 31 127.338 30.9648 127.268 30.918C127.15 30.8477 127.045 30.7422 126.951 30.6016C126.857 30.4609 126.787 30.3086 126.74 30.1445C126.693 29.957 126.658 29.7812 126.635 29.6172C126.611 29.4531 126.6 29.3125 126.6 29.1953C126.6 29.0547 126.611 28.9023 126.635 28.7383C126.658 28.5742 126.693 28.4219 126.74 28.2812C127.42 28.2344 128.1 28.0586 128.779 27.7539C129.482 27.4492 130.15 27.1562 130.783 26.875C130.947 26.8047 131.076 26.7227 131.17 26.6289C131.287 26.5117 131.404 26.418 131.521 26.3477C131.639 26.2539 131.768 26.1719 131.908 26.1016C132.049 26.0312 132.225 25.9961 132.436 25.9961H132.541C134.018 25.3164 135.459 24.5781 136.865 23.7812C138.295 22.9844 139.713 22.1758 141.119 21.3555C141.189 21.1445 141.295 20.9336 141.436 20.7227C141.6 20.5117 141.752 20.3125 141.893 20.125C142.033 19.9141 142.162 19.7031 142.279 19.4922C142.396 19.2812 142.455 19.0703 142.455 18.8594C142.455 18.4375 142.256 18.0859 141.857 17.8047H141.717C141.436 17.8047 141.189 17.7695 140.979 17.6992C140.768 17.6055 140.568 17.5234 140.381 17.4531C140.193 17.3594 139.982 17.2891 139.748 17.2422C139.514 17.1719 139.244 17.1484 138.939 17.1719C138.822 17.0781 138.635 16.9961 138.377 16.9258C138.119 16.8555 137.908 16.8203 137.744 16.8203C136.9 16.8203 136.068 16.8789 135.248 16.9961C134.428 17.0898 133.607 17.1484 132.787 17.1719C132.576 17.2891 132.377 17.3945 132.189 17.4883C132.002 17.582 131.779 17.6289 131.521 17.6289C131.404 17.6289 131.299 17.6289 131.205 17.6289C131.111 17.6055 131.006 17.582 130.889 17.5586C130.443 17.7461 129.939 17.9102 129.377 18.0508C128.814 18.168 128.252 18.3203 127.689 18.5078C127.15 18.6719 126.646 18.8828 126.178 19.1406C125.709 19.3984 125.346 19.75 125.088 20.1953C125.088 20.3125 125.111 20.418 125.158 20.5117C125.205 20.582 125.229 20.6758 125.229 20.793V20.9336C125.088 21.0742 124.994 21.2383 124.947 21.4258C124.9 21.5898 124.865 21.7656 124.842 21.9531C124.818 22.1172 124.783 22.293 124.736 22.4805C124.713 22.6445 124.631 22.8086 124.49 22.9727C124.584 23.3242 124.631 23.7109 124.631 24.1328C124.631 24.6016 124.596 25.0703 124.525 25.5391C124.479 26.0078 124.455 26.4766 124.455 26.9453C124.455 27.3906 124.502 27.7891 124.596 28.1406C124.455 28.2812 124.396 28.4922 124.42 28.7734C124.443 29.0547 124.385 29.2656 124.244 29.4062C124.244 29.5938 124.291 29.7227 124.385 29.793C124.502 29.8633 124.572 29.9805 124.596 30.1445C124.502 30.543 124.455 30.9766 124.455 31.4453C124.455 32.125 124.525 32.8164 124.666 33.5195C124.83 34.2227 125.018 34.9141 125.229 35.5938C125.604 35.4766 126.002 35.3828 126.424 35.3125C126.869 35.2188 127.291 35.1719 127.689 35.1719C127.76 35.1719 127.83 35.1836 127.9 35.207C127.971 35.207 128.041 35.207 128.111 35.207C128.158 35.4648 128.252 35.6992 128.393 35.9102C128.533 36.1211 128.662 36.3555 128.779 36.6133C128.662 36.7773 128.557 36.9062 128.463 37C128.393 37.1172 128.357 37.2695 128.357 37.457C128.029 37.4805 127.76 37.5625 127.549 37.7031C127.338 37.8672 127.104 38.043 126.846 38.2305H126.705C126.307 38.2305 125.979 38.3008 125.721 38.4414C125.463 38.6055 125.17 38.7812 124.842 38.9688C124.561 38.8516 124.279 38.793 123.998 38.793C123.693 38.793 123.389 38.8516 123.084 38.9688C122.709 38.8047 122.404 38.5469 122.17 38.1953C121.936 37.8672 121.736 37.4922 121.572 37.0703C121.408 36.6719 121.256 36.2617 121.115 35.8398C120.998 35.418 120.857 35.0312 120.693 34.6797V34.1172C120.693 33.5781 120.646 33.0625 120.553 32.5703C120.482 32.0547 120.447 31.5273 120.447 30.9883C120.447 30.7773 120.459 30.5547 120.482 30.3203C120.529 30.0859 120.6 29.8633 120.693 29.6523C120.646 29.4414 120.623 29.2422 120.623 29.0547V28.3867C120.623 27.6836 120.646 26.9805 120.693 26.2773C120.764 25.5742 120.799 24.8711 120.799 24.168C120.799 23.6523 120.764 23.125 120.693 22.5859C120.576 22.6328 120.471 22.6797 120.377 22.7266C120.283 22.7734 120.178 22.7969 120.061 22.7969C119.943 22.7969 119.826 22.7852 119.709 22.7617C119.615 22.7383 119.521 22.7148 119.428 22.6914C119.193 22.4805 119.029 22.2227 118.936 21.918C118.842 21.6133 118.713 21.332 118.549 21.0742C118.549 20.6289 118.619 20.2656 118.76 19.9844C118.877 19.6797 119.029 19.4102 119.217 19.1758C119.404 18.918 119.592 18.6719 119.779 18.4375C119.99 18.2031 120.166 17.9102 120.307 17.5586H120.447C120.822 17.5586 121.197 17.4414 121.572 17.207C121.947 16.9492 122.369 16.8203 122.838 16.8203C123.002 16.6094 123.225 16.4336 123.506 16.293C123.787 16.1289 124.08 16 124.385 15.9062C124.713 15.8125 125.029 15.7539 125.334 15.7305C125.662 15.6836 125.967 15.6602 126.248 15.6602C126.342 15.4961 126.482 15.3906 126.67 15.3438C126.857 15.2734 127.045 15.2148 127.232 15.168C127.443 15.0977 127.631 15.0391 127.795 14.9922C127.982 14.9219 128.135 14.8047 128.252 14.6406C128.439 14.6875 128.615 14.7109 128.779 14.7109C129.084 14.7109 129.377 14.6758 129.658 14.6055C129.939 14.5117 130.221 14.418 130.502 14.3242C130.783 14.207 131.064 14.1016 131.346 14.0078C131.65 13.9141 131.967 13.8672 132.295 13.8672C132.412 13.8672 132.529 13.8789 132.646 13.9023C132.764 13.9023 132.881 13.9023 132.998 13.9023C133.186 13.9023 133.291 13.832 133.314 13.6914C133.361 13.5508 133.443 13.4453 133.561 13.375C133.631 13.3984 133.76 13.4102 133.947 13.4102C134.416 13.4102 134.873 13.375 135.318 13.3047C135.764 13.2109 136.221 13.1641 136.689 13.1641C136.9 13.1641 137.111 13.1758 137.322 13.1992C137.533 13.2227 137.744 13.2812 137.955 13.375C138.002 13.3047 138.049 13.2461 138.096 13.1992C138.143 13.1523 138.178 13.0938 138.201 13.0234C139.35 13.0938 140.428 13.3281 141.436 13.7266C142.467 14.125 143.533 14.4766 144.635 14.7812C144.775 14.9922 144.939 15.1797 145.127 15.3438L145.725 15.8359C145.936 16 146.135 16.1641 146.322 16.3281C146.51 16.4922 146.674 16.6914 146.814 16.9258V17.4531ZM211.572 44.875C211.572 45.1328 211.514 45.3789 211.396 45.6133C210.928 45.8711 210.436 46.0469 209.92 46.1406C209.428 46.2578 208.936 46.3164 208.443 46.3164C208.209 46.3164 207.951 46.3047 207.67 46.2812C207.412 46.2812 207.178 46.2578 206.967 46.2109C206.896 46.1875 206.814 46.1406 206.721 46.0703C206.627 46 206.533 45.9648 206.439 45.9648C206.205 45.9648 205.982 46 205.771 46.0703C205.561 46.1641 205.338 46.2109 205.104 46.2109C204.986 46.2109 204.869 46.1758 204.752 46.1055C204.658 46.0352 204.553 45.9883 204.436 45.9648C204.271 45.918 204.107 45.9062 203.943 45.9297C203.779 45.9531 203.604 45.9648 203.416 45.9648C203.158 45.9648 202.924 45.9297 202.713 45.8594C202.525 45.7891 202.35 45.6602 202.186 45.4727C201.6 45.4023 201.025 45.2852 200.463 45.1211C199.9 44.9805 199.338 44.8164 198.775 44.6289C198.213 44.4648 197.65 44.3008 197.088 44.1367C196.525 43.9961 195.951 43.9023 195.365 43.8555C195.225 43.6914 195.061 43.5625 194.873 43.4688C194.686 43.3984 194.545 43.2695 194.451 43.082C194.334 43.082 194.252 43.0938 194.205 43.1172C194.158 43.1641 194.076 43.1875 193.959 43.1875C193.561 42.8594 193.127 42.5781 192.658 42.3438C192.213 42.1094 191.744 41.8867 191.252 41.6758C190.783 41.4648 190.314 41.2422 189.846 41.0078C189.4 40.7969 188.979 40.5156 188.58 40.1641H188.404C188.217 40.1875 188.053 40.1406 187.912 40.0234C187.795 39.9297 187.643 39.8828 187.455 39.8828C187.338 39.8828 187.244 39.8945 187.174 39.918C187.104 39.7305 186.998 39.5781 186.857 39.4609C186.717 39.3438 186.564 39.2266 186.4 39.1094C186.26 39.0156 186.119 38.9102 185.979 38.793C185.838 38.6992 185.732 38.5703 185.662 38.4062C185.076 38.1953 184.502 37.9375 183.939 37.6328C183.4 37.3516 182.92 36.9766 182.498 36.5078C182.029 36.4609 181.643 36.3203 181.338 36.0859C181.033 35.8281 180.752 35.5117 180.494 35.1367C179.932 34.9492 179.416 34.7031 178.947 34.3984C178.479 34.0938 178.01 33.7773 177.541 33.4492C177.096 33.1211 176.615 32.8281 176.1 32.5703C175.607 32.2891 175.045 32.0898 174.412 31.9727C174.389 31.8086 174.318 31.6914 174.201 31.6211C174.084 31.5273 173.943 31.457 173.779 31.4102C173.639 31.3398 173.498 31.2812 173.357 31.2344C173.217 31.1875 173.111 31.0938 173.041 30.9531C172.971 30.9531 172.9 30.9531 172.83 30.9531C172.76 30.9297 172.689 30.918 172.619 30.918C172.549 30.918 172.467 30.9297 172.373 30.9531C172.303 30.9531 172.232 30.9531 172.162 30.9531L172.197 30.8477C172.197 30.7539 172.162 30.6953 172.092 30.6719C172.045 30.6484 171.975 30.625 171.881 30.6016C171.787 30.5781 171.705 30.543 171.635 30.4961C171.564 30.4492 171.529 30.3438 171.529 30.1797H171.424C171.166 30.1797 170.932 30.1328 170.721 30.0391C170.51 29.9453 170.275 29.875 170.018 29.8281C169.971 30.0859 169.947 30.332 169.947 30.5664V31.1992C169.947 32.2539 170.064 33.3672 170.299 34.5391C170.533 35.6875 170.896 36.7188 171.389 37.6328C171.881 37.8203 172.303 38.0664 172.654 38.3711C173.006 38.6758 173.346 39.0273 173.674 39.4258C173.697 40.0586 173.463 40.5859 172.971 41.0078C172.502 41.4531 171.951 41.6758 171.318 41.6758C170.967 41.6758 170.639 41.582 170.334 41.3945C170.053 41.2305 169.818 40.9844 169.631 40.6562C169.49 40.6562 169.361 40.6797 169.244 40.7266C169.127 40.7969 168.986 40.832 168.822 40.832C168.752 40.832 168.682 40.8203 168.611 40.7969C168.377 40.3984 168.143 40.0469 167.908 39.7422C167.697 39.4375 167.557 39.0273 167.486 38.5117C167.229 38.3945 167.064 38.1836 166.994 37.8789C166.947 37.5742 166.818 37.3281 166.607 37.1406C166.514 36.0859 166.385 35.0312 166.221 33.9766C166.08 32.9219 166.01 31.8672 166.01 30.8125C166.01 30.5781 166.021 30.3438 166.045 30.1094C166.068 29.8516 166.092 29.5938 166.115 29.3359C166.068 29.2188 165.998 29.1133 165.904 29.0195C165.834 28.9023 165.775 28.7852 165.729 28.668C165.26 28.7852 164.768 28.9023 164.252 29.0195C163.76 29.1133 163.256 29.1602 162.74 29.1602C162.412 29.1602 162.014 29.1133 161.545 29.0195C161.076 28.9023 160.713 28.75 160.455 28.5625C160.268 28.4453 160.139 28.2344 160.068 27.9297C159.975 27.6016 159.928 27.3203 159.928 27.0859C159.928 26.6875 159.998 26.2891 160.139 25.8906C160.279 25.4688 160.467 25.1055 160.701 24.8008C161.85 24.332 162.916 23.7578 163.9 23.0781C164.908 22.3984 165.893 21.6602 166.854 20.8633C166.877 20.6289 166.912 20.3945 166.959 20.1602C167.029 19.9258 167.064 19.6797 167.064 19.4219C167.064 19.1406 166.994 18.8711 166.854 18.6133C166.994 18.4727 167.064 18.2969 167.064 18.0859C167.064 17.8516 167.123 17.6406 167.24 17.4531V17.2422C167.24 17.1484 167.229 17.0547 167.205 16.9609C167.205 16.8672 167.17 16.7734 167.1 16.6797C167.264 15.7656 167.393 14.8633 167.486 13.9727C167.58 13.0586 167.627 12.1211 167.627 11.1602C167.627 11.0898 167.662 10.9023 167.732 10.5977C167.826 10.2695 167.885 10.0469 167.908 9.92969C168.002 9.39062 168.061 8.86328 168.084 8.34766C168.131 7.80859 168.189 7.26953 168.26 6.73047C168.283 6.54297 168.33 6.29688 168.4 5.99219C168.471 5.6875 168.506 5.47656 168.506 5.35938C168.506 5.19531 168.471 5.08984 168.4 5.04297C168.354 4.97266 168.307 4.86719 168.26 4.72656C168.4 4.1875 168.471 3.64844 168.471 3.10938C168.494 2.54688 168.541 1.99609 168.611 1.45703C169.01 1.29297 169.326 1.12891 169.561 0.964844C169.795 0.800781 170.135 0.71875 170.58 0.71875H170.65C170.697 1 170.803 1.26953 170.967 1.52734C171.131 1.76172 171.295 2.00781 171.459 2.26562C171.646 2.5 171.811 2.73438 171.951 2.96875C172.092 3.17969 172.162 3.39062 172.162 3.60156C172.162 4 172.127 4.43359 172.057 4.90234C171.986 5.37109 171.928 5.80469 171.881 6.20312C171.764 7.25781 171.658 8.30078 171.564 9.33203C171.471 10.3398 171.33 11.3711 171.143 12.4258C171.213 12.7539 171.248 13.0586 171.248 13.3398C171.248 13.7617 171.213 14.1836 171.143 14.6055C171.072 15.0273 171.037 15.4609 171.037 15.9062C171.037 16.1172 171.049 16.3398 171.072 16.5742C171.119 16.8086 171.189 17.0195 171.283 17.207C172.08 16.9961 172.795 16.5625 173.428 15.9062C173.521 15.8125 173.615 15.6953 173.709 15.5547C173.826 15.3906 173.943 15.2617 174.061 15.168C174.295 14.9805 174.541 14.8164 174.799 14.6758C175.08 14.5117 175.35 14.3477 175.607 14.1836C176.217 13.7852 176.803 13.375 177.365 12.9531C177.951 12.5078 178.537 12.0742 179.123 11.6523C180.857 10.3867 182.533 9.07422 184.15 7.71484C185.791 6.33203 187.385 4.87891 188.932 3.35547C189.002 2.95703 189.143 2.64062 189.354 2.40625C189.564 2.17188 189.752 1.89062 189.916 1.5625C190.361 1.39844 190.748 1.15234 191.076 0.824219C191.217 0.871094 191.357 0.90625 191.498 0.929688C191.662 0.929688 191.814 0.929688 191.955 0.929688C192.119 0.929688 192.271 0.941406 192.412 0.964844C192.576 0.964844 192.717 1 192.834 1.07031C192.857 1.42188 192.893 1.73828 192.939 2.01953C192.986 2.30078 193.127 2.57031 193.361 2.82812C193.361 2.875 193.361 2.92188 193.361 2.96875C193.385 3.01562 193.396 3.0625 193.396 3.10938C193.396 3.36719 193.326 3.57812 193.186 3.74219C193.045 3.90625 192.963 4.10547 192.939 4.33984L191.111 6.16797C190.502 6.77734 189.939 7.43359 189.424 8.13672C189.236 8.16016 189.072 8.21875 188.932 8.3125C188.791 8.40625 188.65 8.51172 188.51 8.62891C188.393 8.72266 188.264 8.81641 188.123 8.91016C187.982 9.00391 187.83 9.07422 187.666 9.12109C187.244 9.68359 186.764 10.1992 186.225 10.668C185.686 11.1133 185.135 11.5469 184.572 11.9688C184.01 12.3906 183.447 12.8242 182.885 13.2695C182.346 13.6914 181.842 14.1602 181.373 14.6758C180.881 14.9102 180.4 15.1914 179.932 15.5195C179.486 15.8242 179.123 16.2109 178.842 16.6797H178.666C178.549 16.6797 178.455 16.7148 178.385 16.7852C178.314 16.832 178.221 16.8555 178.104 16.8555C176.838 17.957 175.525 19 174.166 19.9844C172.807 20.9453 171.506 22 170.264 23.1484V24.0273C170.662 24.2617 171.096 24.4844 171.564 24.6953C172.033 24.8828 172.49 25.0938 172.936 25.3281C173.404 25.5625 173.838 25.8203 174.236 26.1016C174.658 26.3594 175.021 26.6758 175.326 27.0508C175.373 27.0273 175.432 27.0156 175.502 27.0156C175.713 27.0156 175.877 27.0859 175.994 27.2266C176.111 27.3438 176.311 27.3789 176.592 27.332C176.686 27.707 176.896 27.9766 177.225 28.1406C177.553 28.3047 177.881 28.4453 178.209 28.5625C178.49 28.8438 178.748 29.1133 178.982 29.3711C179.217 29.6055 179.557 29.7578 180.002 29.8281C180.049 29.9219 180.084 30.0273 180.107 30.1445C180.131 30.2617 180.178 30.3672 180.248 30.4609C180.693 30.6016 181.115 30.8008 181.514 31.0586C181.936 31.3164 182.346 31.5859 182.744 31.8672C183.143 32.125 183.541 32.3828 183.939 32.6406C184.361 32.875 184.807 33.0625 185.275 33.2031C185.346 33.4375 185.475 33.6016 185.662 33.6953C185.873 33.7891 186.037 33.9297 186.154 34.1172H186.787C186.857 34.2344 186.951 34.3516 187.068 34.4688C187.186 34.5625 187.268 34.7031 187.314 34.8906C187.502 34.9375 187.713 35.0078 187.947 35.1016C188.182 35.1719 188.393 35.2656 188.58 35.3828C188.65 35.4531 188.697 35.5352 188.721 35.6289C188.768 35.7227 188.838 35.8047 188.932 35.875C189.072 35.9922 189.283 36.0859 189.564 36.1562C189.869 36.2031 190.127 36.2852 190.338 36.4023C190.76 36.6367 191.17 36.8945 191.568 37.1758C191.967 37.4805 192.389 37.7617 192.834 38.0195L194.205 38.7578C194.439 38.875 194.65 39.0039 194.838 39.1445C195.049 39.2852 195.26 39.4141 195.471 39.5312C195.893 39.7188 196.338 39.8359 196.807 39.8828C197.299 39.9531 197.744 40.082 198.143 40.2695C198.26 40.3398 198.342 40.4219 198.389 40.5156C198.436 40.6328 198.518 40.7266 198.635 40.7969C198.822 40.9141 199.115 40.9961 199.514 41.043C199.912 41.0898 200.24 41.1719 200.498 41.2891C200.826 41.4297 201.143 41.5586 201.447 41.6758C201.775 41.8164 202.104 41.9805 202.432 42.168C203.135 42.2148 203.826 42.2969 204.506 42.4141C205.209 42.5312 205.9 42.6484 206.58 42.7656C207.26 42.8828 207.939 42.9883 208.619 43.082C209.322 43.1758 210.025 43.2109 210.729 43.1875C210.729 43.2344 210.752 43.2578 210.799 43.2578C210.869 43.2812 210.928 43.293 210.975 43.293C211.139 43.5508 211.279 43.8086 211.396 44.0664C211.514 44.3242 211.572 44.5938 211.572 44.875ZM197.826 32.1836C197.709 32.3711 197.568 32.5469 197.404 32.7109C197.24 32.8516 197.088 33.0039 196.947 33.168C196.783 33.2383 196.596 33.2734 196.385 33.2734C196.197 33.2734 196.01 33.2734 195.822 33.2734C195.658 33.25 195.494 33.25 195.33 33.2734C195.189 33.2734 195.072 33.3203 194.979 33.4141C194.791 33.3672 194.65 33.2852 194.557 33.168C194.463 33.0273 194.299 32.9453 194.064 32.9219C193.971 32.8984 193.877 32.8984 193.783 32.9219C193.432 32.5234 193.104 32.1016 192.799 31.6562C192.518 31.2109 192.248 30.7891 191.99 30.3906C191.967 29.5234 191.896 28.6445 191.779 27.7539C191.756 27.543 191.721 27.332 191.674 27.1211C191.627 26.9102 191.592 26.7109 191.568 26.5234C191.568 26.2891 191.58 26.0664 191.604 25.8555C191.65 25.6211 191.686 25.4102 191.709 25.2227C191.803 24.543 191.908 23.875 192.025 23.2188C192.143 22.5625 192.248 21.8945 192.342 21.2148C192.436 20.6055 192.482 19.9727 192.482 19.3164C192.482 18.6367 192.377 18.0039 192.166 17.418L192.131 17.2422C192.178 17.0547 192.225 16.9023 192.271 16.7852C192.342 16.6445 192.389 16.4922 192.412 16.3281C192.459 16.0703 192.4 15.8828 192.236 15.7656C192.307 15.5781 192.424 15.4609 192.588 15.4141C192.752 15.3438 192.846 15.2031 192.869 14.9922C192.893 14.8984 192.893 14.8047 192.869 14.7109C193.057 14.6406 193.244 14.582 193.432 14.5352C193.643 14.4648 193.842 14.4531 194.029 14.5C194.334 14.5469 194.604 14.6523 194.838 14.8164C195.072 14.957 195.295 15.1211 195.506 15.3086C195.881 16.4336 196.033 17.6289 195.963 18.8945C195.893 20.1367 195.775 21.3906 195.611 22.6562C195.447 23.9219 195.342 25.1641 195.295 26.3828C195.248 27.5781 195.436 28.6914 195.857 29.7227L195.928 29.7578C196.045 29.7812 196.139 29.7461 196.209 29.6523C196.279 29.5352 196.373 29.4883 196.49 29.5117C196.584 29.5586 196.643 29.582 196.666 29.582C196.76 30.0508 196.912 30.4961 197.123 30.918C197.334 31.3398 197.568 31.7617 197.826 32.1836ZM231.436 14.3945C231.342 14.6992 231.189 14.9805 230.979 15.2383L230.381 15.9766C230.193 16.2109 230.029 16.4688 229.889 16.75C229.771 17.0078 229.736 17.3125 229.783 17.6641C229.736 17.6641 229.678 17.6641 229.607 17.6641C229.537 17.6406 229.479 17.6289 229.432 17.6289C229.057 17.6289 228.764 17.7227 228.553 17.9102C228.365 18.0742 228.107 18.2148 227.779 18.332C227.732 18.1914 227.674 18.0625 227.604 17.9453C227.533 17.8047 227.428 17.7109 227.287 17.6641C226.725 17.7812 226.162 17.875 225.6 17.9453C225.037 17.9922 224.475 18.0625 223.912 18.1562C223.654 18.2031 223.396 18.2734 223.139 18.3672C222.881 18.4375 222.611 18.5078 222.33 18.5781C222.189 18.625 222.037 18.6484 221.873 18.6484C221.709 18.625 221.545 18.625 221.381 18.6484C220.818 18.6719 220.209 18.7188 219.553 18.7891C218.896 18.8359 218.311 19.0117 217.795 19.3164C217.561 19.2695 217.314 19.2344 217.057 19.2109C216.799 19.1875 216.541 19.1758 216.283 19.1758C215.721 19.1758 215.1 19.2344 214.42 19.3516C213.764 19.4453 213.178 19.6445 212.662 19.9492C212.545 19.9023 212.416 19.8672 212.275 19.8438C212.158 19.8203 212.018 19.8086 211.854 19.8086C211.807 19.8086 211.771 19.8203 211.748 19.8438C211.725 19.8438 211.689 19.8438 211.643 19.8438C211.619 20.0547 211.643 20.2656 211.713 20.4766C211.807 20.6641 211.959 20.8164 212.17 20.9336C212.076 21.1914 212.029 21.4727 212.029 21.7773C212.029 22.1758 212.053 22.5742 212.1 22.9727C212.17 23.3711 212.205 23.7695 212.205 24.168C212.205 24.6133 212.146 24.9648 212.029 25.2227C212.264 25.9258 212.381 26.6758 212.381 27.4727C212.381 27.7539 212.357 28.0352 212.311 28.3164C212.287 28.5742 212.275 28.8555 212.275 29.1602C212.275 29.418 212.369 29.6289 212.557 29.793C212.744 29.9336 212.838 30.1328 212.838 30.3906C212.838 30.4844 212.814 30.5781 212.768 30.6719C213.096 30.6016 213.412 30.5078 213.717 30.3906C214.021 30.25 214.338 30.1797 214.666 30.1797C214.854 30.1797 215.029 30.2148 215.193 30.2852C215.381 30.3555 215.545 30.4492 215.686 30.5664C215.662 30.6836 215.639 30.8125 215.615 30.9531C215.615 31.0938 215.615 31.2344 215.615 31.375C215.615 31.6328 215.615 31.8789 215.615 32.1133C215.639 32.3242 215.662 32.5586 215.686 32.8164C215.498 33.1445 215.275 33.4375 215.018 33.6953C214.783 33.9531 214.619 34.2812 214.525 34.6797C214.174 34.6797 213.857 34.7617 213.576 34.9258C213.318 35.0664 213.072 35.2305 212.838 35.418C212.604 35.582 212.369 35.7461 212.135 35.9102C211.9 36.0508 211.643 36.1211 211.361 36.1211C211.01 36.1211 210.764 36.0742 210.623 35.9805C210.482 35.8633 210.377 35.7461 210.307 35.6289C210.236 35.5117 210.166 35.4062 210.096 35.3125C210.049 35.2188 209.932 35.1836 209.744 35.207C209.697 34.9023 209.604 34.6211 209.463 34.3633C209.322 34.082 209.17 33.8125 209.006 33.5547C208.865 33.2969 208.713 33.0391 208.549 32.7812C208.408 32.5 208.303 32.2188 208.232 31.9375C208.092 31.3281 208.033 30.6953 208.057 30.0391C208.08 29.3828 207.975 28.75 207.74 28.1406C207.787 27.8125 207.822 27.4844 207.846 27.1562C207.869 26.8047 207.881 26.4648 207.881 26.1367C207.881 25.4805 207.857 24.8359 207.811 24.2031C207.787 23.5469 207.764 22.8789 207.74 22.1992C207.576 21.9883 207.471 21.7539 207.424 21.4961C207.4 21.2148 207.377 20.9453 207.354 20.6875C207.283 20.6172 207.201 20.5469 207.107 20.4766C207.037 20.4062 206.99 20.3125 206.967 20.1953C206.779 20.1484 206.639 20.125 206.545 20.125C206.217 20.125 205.936 20.207 205.701 20.3711C205.49 20.5117 205.291 20.582 205.104 20.582C204.916 20.582 204.74 20.5586 204.576 20.5117C204.412 20.4648 204.248 20.4414 204.084 20.4414C203.943 20.4414 203.861 20.4766 203.838 20.5469C203.838 20.5938 203.791 20.6406 203.697 20.6875C203.627 20.7344 203.463 20.7812 203.205 20.8281C202.947 20.875 202.654 20.9219 202.326 20.9688C202.021 20.9922 201.717 21.0156 201.412 21.0391C201.131 21.0625 200.943 21.0742 200.85 21.0742C200.475 21.0742 200.193 21.0039 200.006 20.8633C199.795 20.6992 199.549 20.5234 199.268 20.3359C199.314 20.1953 199.338 20.1016 199.338 20.0547C199.338 19.8203 199.268 19.6328 199.127 19.4922C198.986 19.3281 198.916 19.1875 198.916 19.0703C198.916 18.8125 199.021 18.6133 199.232 18.4727C199.42 18.332 199.525 18.1094 199.549 17.8047C200.088 17.5703 200.639 17.3945 201.201 17.2773C201.764 17.1602 202.338 17.0664 202.924 16.9961C203.51 16.9258 204.084 16.8438 204.646 16.75C205.232 16.6562 205.807 16.5039 206.369 16.293C206.533 16.3164 206.686 16.3398 206.826 16.3633C206.99 16.3633 207.154 16.3633 207.318 16.3633C208.021 16.3633 208.713 16.293 209.393 16.1523C210.096 15.9883 210.811 15.9062 211.537 15.9062C211.725 15.9062 211.912 15.918 212.1 15.9414C212.287 15.9648 212.475 16 212.662 16.0469C213.6 15.9062 214.525 15.7539 215.439 15.5898C216.377 15.4258 217.338 15.2852 218.322 15.168C218.791 15.1211 219.248 15.0859 219.693 15.0625C220.162 15.0156 220.631 14.957 221.1 14.8867C221.264 14.8633 221.381 14.8281 221.451 14.7812C221.545 14.7109 221.592 14.582 221.592 14.3945C221.803 14.4883 222.037 14.5352 222.295 14.5352C222.693 14.5352 223.08 14.4648 223.455 14.3242C223.83 14.1836 224.217 14.1133 224.615 14.1133C224.709 14.1133 224.791 14.125 224.861 14.1484C224.932 14.1484 225.002 14.1484 225.072 14.1484C225.236 14.1484 225.318 14.0781 225.318 13.9375C225.342 13.7734 225.459 13.668 225.67 13.6211C225.834 13.5742 226.068 13.5391 226.373 13.5156C226.678 13.4922 226.994 13.4688 227.322 13.4453C227.674 13.3984 227.99 13.3516 228.271 13.3047C228.576 13.2344 228.799 13.1406 228.939 13.0234L229.186 12.6367C229.607 12.6602 229.912 12.8477 230.1 13.1992C230.311 13.5273 230.428 13.8906 230.451 14.2891C230.545 14.3828 230.674 14.4297 230.838 14.4297C231.025 14.4062 231.189 14.3945 231.33 14.3945H231.436ZM252.881 30.6719C252.881 30.9062 252.811 31.1055 252.67 31.2695C252.553 31.4102 252.4 31.5391 252.213 31.6562C252.049 31.7734 251.873 31.8789 251.686 31.9727C251.521 32.0664 251.369 32.1836 251.229 32.3242C251.135 32.418 251.064 32.5352 251.018 32.6758C250.994 32.793 250.936 32.875 250.842 32.9219C250.701 33.0391 250.549 33.1094 250.385 33.1328C250.221 33.1562 250.045 33.1914 249.857 33.2383C249.693 33.2617 249.529 33.3086 249.365 33.3789C249.201 33.4258 249.061 33.5312 248.943 33.6953C247.842 33.8125 246.752 33.9648 245.674 34.1523C244.619 34.3398 243.529 34.4336 242.404 34.4336C242.193 34.4336 241.959 34.457 241.701 34.5039C241.467 34.5273 241.244 34.5508 241.033 34.5742C240.541 34.6211 240.049 34.6562 239.557 34.6797C239.088 34.7031 238.607 34.7148 238.115 34.7148C237.436 34.7148 236.756 34.6914 236.076 34.6445C235.396 34.5742 234.729 34.4688 234.072 34.3281C233.908 34.2109 233.721 34.1172 233.51 34.0469C233.299 33.9766 233.076 33.9062 232.842 33.8359C232.631 33.7656 232.432 33.6836 232.244 33.5898C232.057 33.4961 231.916 33.3555 231.822 33.168C231.471 33.1445 231.154 33.0742 230.873 32.957C230.615 32.8398 230.369 32.7109 230.135 32.5703C229.924 32.4062 229.701 32.2422 229.467 32.0781C229.232 31.9141 228.963 31.7734 228.658 31.6562C228.424 31.3281 228.178 31.0117 227.92 30.707C227.686 30.3789 227.393 30.1094 227.041 29.8984C226.971 29.4531 226.854 29.0078 226.689 28.5625C226.549 28.1172 226.396 27.6836 226.232 27.2617C226.092 26.8164 225.975 26.3711 225.881 25.9258C225.764 25.4805 225.705 25.0234 225.705 24.5547C225.705 24.2266 225.752 23.8281 225.846 23.3594C225.939 22.8906 226.057 22.4219 226.197 21.9531C226.361 21.4609 226.549 21.0039 226.76 20.582C226.971 20.1602 227.182 19.8203 227.393 19.5625C227.463 19.4922 227.545 19.4336 227.639 19.3867C227.732 19.3398 227.814 19.2695 227.885 19.1758C228.096 18.9414 228.318 18.7539 228.553 18.6133C228.787 18.4492 229.033 18.2617 229.291 18.0508C229.385 17.957 229.455 17.8516 229.502 17.7344C229.572 17.6172 229.666 17.5117 229.783 17.418C229.854 17.3711 229.947 17.3594 230.064 17.3828C230.205 17.4062 230.322 17.3828 230.416 17.3125C230.51 17.2422 230.557 17.1602 230.557 17.0664C230.557 16.9727 230.592 16.8906 230.662 16.8203C230.686 16.7969 230.756 16.7969 230.873 16.8203C230.99 16.8203 231.061 16.8203 231.084 16.8203C231.248 16.8203 231.436 16.7148 231.646 16.5039C231.857 16.2695 232.033 16.1172 232.174 16.0469C232.338 15.9531 232.502 15.8945 232.666 15.8711C232.83 15.8242 233.006 15.7539 233.193 15.6602C233.451 15.5195 233.697 15.4141 233.932 15.3438C234.189 15.25 234.447 15.1445 234.705 15.0273C234.846 14.9805 234.975 14.8984 235.092 14.7812C235.209 14.6641 235.326 14.582 235.443 14.5352C235.654 14.4648 235.877 14.418 236.111 14.3945C236.369 14.3477 236.604 14.3125 236.814 14.2891C237.049 14.2422 237.271 14.1953 237.482 14.1484C237.717 14.0781 237.928 13.9609 238.115 13.7969H238.396C238.818 13.7969 239.229 13.7383 239.627 13.6211C240.025 13.5039 240.436 13.4453 240.857 13.4453C240.975 13.4453 241.15 13.4688 241.385 13.5156C241.572 13.3984 241.783 13.3398 242.018 13.3398C242.416 13.3398 242.814 13.4453 243.213 13.6562C243.611 13.8438 244.021 13.9375 244.443 13.9375H244.654C244.748 13.9375 244.842 13.9258 244.936 13.9023C245.193 14.1602 245.498 14.3008 245.85 14.3242C246.225 14.3477 246.541 14.4531 246.799 14.6406C246.963 14.7812 247.092 14.9453 247.186 15.1328C247.303 15.3203 247.396 15.5195 247.467 15.7305L247.678 16.3633C247.748 16.5742 247.842 16.7617 247.959 16.9258C247.842 17.7695 247.49 18.4492 246.904 18.9648C246.342 19.457 245.627 19.7031 244.76 19.7031C244.432 19.7031 244.15 19.668 243.916 19.5977C243.705 19.5039 243.506 19.4102 243.318 19.3164C243.154 19.2227 242.979 19.1289 242.791 19.0352C242.604 18.9414 242.393 18.8711 242.158 18.8242C242.416 18.3555 242.58 17.8516 242.65 17.3125C242.393 17.1953 242.135 17.1133 241.877 17.0664C241.619 17.0195 241.373 16.9375 241.139 16.8203C240.506 16.9844 239.885 17.1016 239.275 17.1719C238.689 17.2188 238.139 17.4648 237.623 17.9102C237.506 17.8867 237.377 17.8633 237.236 17.8398C237.119 17.8164 237.002 17.8047 236.885 17.8047C236.744 17.8047 236.463 17.9102 236.041 18.1211C235.619 18.3086 235.162 18.5312 234.67 18.7891C234.201 19.0469 233.744 19.3047 233.299 19.5625C232.877 19.8203 232.584 19.9961 232.42 20.0898C232.232 20.207 232.068 20.3477 231.928 20.5117C231.787 20.6758 231.646 20.8516 231.506 21.0391C231.365 21.2031 231.225 21.3672 231.084 21.5312C230.943 21.6719 230.768 21.7773 230.557 21.8477C230.51 22.1055 230.428 22.3281 230.311 22.5156C230.193 22.7031 230.064 22.9023 229.924 23.1133C229.9 23.5352 229.854 23.957 229.783 24.3789C229.736 24.8008 229.713 25.2227 229.713 25.6445V26.1016C229.713 26.2422 229.736 26.3711 229.783 26.4883C230.018 26.793 230.205 27.1328 230.346 27.5078C230.51 27.8828 230.779 28.1406 231.154 28.2812C231.178 28.375 231.166 28.4336 231.119 28.457C231.096 28.4805 231.072 28.5391 231.049 28.6328C231.189 28.8906 231.365 29.1016 231.576 29.2656C231.811 29.4062 232.045 29.5586 232.279 29.7227C232.514 29.8633 232.736 30.0156 232.947 30.1797C233.158 30.3438 233.322 30.5547 233.439 30.8125C233.791 30.8125 234.119 30.8711 234.424 30.9883C234.752 31.1055 235.057 31.2344 235.338 31.375C235.643 31.5156 235.924 31.6445 236.182 31.7617C236.463 31.8789 236.744 31.9375 237.025 31.9375C237.283 31.9375 237.518 31.9023 237.729 31.832C238.338 32.0195 238.947 32.1602 239.557 32.2539C240.189 32.3242 240.822 32.3594 241.455 32.3594C242.229 32.3594 243.002 32.3125 243.775 32.2188C244.549 32.125 245.322 32.043 246.096 31.9727C246.377 31.9258 246.646 31.9023 246.904 31.9023C247.162 31.9023 247.42 31.8789 247.678 31.832C248.006 31.7852 248.311 31.6328 248.592 31.375C248.896 31.1172 249.189 30.9297 249.471 30.8125C249.729 30.9766 250.033 31.0586 250.385 31.0586C250.783 31.0586 251.17 31 251.545 30.8828C251.92 30.7422 252.307 30.6719 252.705 30.6719H252.881ZM274.537 20.582C274.443 20.8164 274.35 21.0391 274.256 21.25C274.162 21.4609 274.092 21.6953 274.045 21.9531C273.881 22.0703 273.693 22.1641 273.482 22.2344C273.295 22.2812 273.096 22.3398 272.885 22.4102C272.674 22.457 272.475 22.5273 272.287 22.6211C272.123 22.6914 271.994 22.8086 271.9 22.9727C271.83 23.3242 271.795 23.6523 271.795 23.957C271.795 24.3555 271.865 24.6953 272.006 24.9766C271.936 25.1875 271.889 25.4102 271.865 25.6445C271.842 25.8789 271.83 26.1016 271.83 26.3125C271.83 27.0859 271.924 27.8594 272.111 28.6328C272.299 29.3828 272.404 30.1445 272.428 30.918C272.428 31.0352 272.416 31.1641 272.393 31.3047C272.369 31.4453 272.357 31.5742 272.357 31.6914C272.357 32.1836 272.545 32.5117 272.92 32.6758C272.85 32.793 272.814 32.8984 272.814 32.9922C272.814 33.1797 272.838 33.3438 272.885 33.4844C272.932 33.625 272.943 33.7773 272.92 33.9414C273.037 34.1758 273.154 34.3867 273.271 34.5742C273.389 34.7383 273.471 34.9492 273.518 35.207C273.354 35.5352 273.154 35.8398 272.92 36.1211C272.686 36.3789 272.521 36.707 272.428 37.1055C272.334 37.082 272.229 37.0703 272.111 37.0703C271.947 37.0703 271.818 37.1055 271.725 37.1758C271.631 37.2461 271.549 37.3281 271.479 37.4219C271.432 37.5391 271.373 37.6445 271.303 37.7383C271.232 37.8555 271.139 37.9375 271.021 37.9844H270.916C270.799 38.0078 270.693 37.9961 270.6 37.9492C270.529 37.9258 270.459 37.9141 270.389 37.9141C270.342 37.9141 270.248 37.9375 270.107 37.9844C269.92 37.75 269.791 37.4688 269.721 37.1406C269.65 36.8359 269.615 36.5312 269.615 36.2266C269.615 35.8984 269.662 35.6055 269.756 35.3477C269.498 35.1367 269.334 34.8203 269.264 34.3984C269.217 33.9766 269.158 33.625 269.088 33.3438C268.9 32.4766 268.678 31.6328 268.42 30.8125C268.186 29.9922 268.045 29.1484 267.998 28.2812C267.975 27.9531 267.963 27.6367 267.963 27.332V25.5039C267.963 25.1992 267.975 24.9062 267.998 24.625C267.998 24.4141 268.01 24.2148 268.033 24.0273C268.08 23.8164 268.104 23.6055 268.104 23.3945C268.104 23.1133 268.01 22.8438 267.822 22.5859C266.158 22.6562 264.576 22.9609 263.076 23.5C261.6 24.0156 260.123 24.6367 258.646 25.3633C258.553 25.9023 258.494 26.4297 258.471 26.9453C258.447 27.4609 258.436 27.9883 258.436 28.5273V30.0742C258.436 30.6602 258.459 31.1523 258.506 31.5508C258.623 32.2305 258.963 32.7578 259.525 33.1328C260.111 33.4844 260.697 33.7539 261.283 33.9414C261.26 34.293 261.189 34.5977 261.072 34.8555C260.955 35.0898 260.803 35.3125 260.615 35.5234C260.451 35.7109 260.264 35.8984 260.053 36.0859C259.842 36.2734 259.631 36.4844 259.42 36.7188C259.232 36.6016 259.045 36.5195 258.857 36.4727C258.67 36.4258 258.471 36.4023 258.26 36.4023C258.049 36.3789 257.838 36.3555 257.627 36.332C257.416 36.3086 257.205 36.2617 256.994 36.1914L256.221 35.1367C255.963 34.7852 255.682 34.4336 255.377 34.082V33.7656C255.377 33.1328 255.26 32.5234 255.025 31.9375C254.791 31.3516 254.615 30.7539 254.498 30.1445C254.568 29.9336 254.615 29.7227 254.639 29.5117C254.662 29.3008 254.674 29.0781 254.674 28.8438C254.674 28.375 254.65 27.918 254.604 27.4727C254.58 27.0273 254.592 26.582 254.639 26.1367H254.463C254.252 26.1367 254.029 26.1953 253.795 26.3125C253.561 26.4062 253.326 26.5234 253.092 26.6641C252.881 26.7812 252.67 26.8984 252.459 27.0156C252.271 27.1094 252.107 27.1562 251.967 27.1562C251.896 27.1562 251.826 27.1445 251.756 27.1211C251.686 27.0977 251.604 27.0859 251.51 27.0859C251.393 27.0859 251.252 27.1328 251.088 27.2266C250.924 27.3203 250.748 27.4258 250.561 27.543C250.35 27.6367 250.139 27.7305 249.928 27.8242C249.717 27.918 249.506 27.9648 249.295 27.9648C248.967 27.9648 248.639 27.8242 248.311 27.543C248.264 27.3555 248.252 27.1797 248.275 27.0156C248.275 26.8516 248.275 26.6758 248.275 26.4883C248.275 26.3008 248.24 26.1016 248.17 25.8906C248.334 25.5859 248.557 25.3516 248.838 25.1875C249.096 25 249.377 24.8359 249.682 24.6953C249.963 24.5312 250.256 24.3789 250.561 24.2383C250.865 24.0742 251.123 23.8633 251.334 23.6055H251.545C251.873 23.6055 252.166 23.5352 252.424 23.3945C252.705 23.2539 253.021 23.1953 253.373 23.2188C253.49 23.1719 253.572 22.9961 253.619 22.6914L253.76 22.7266C254.275 22.7266 254.732 22.5508 255.131 22.1992C255.389 20.7461 255.6 19.2812 255.764 17.8047C255.928 16.3281 256.01 14.8516 256.01 13.375C256.01 13.2344 255.963 13.0938 255.869 12.9531C255.822 12.7656 255.799 12.5898 255.799 12.4258V11.8984C255.799 11.6406 255.811 11.3711 255.834 11.0898C255.857 10.8086 255.916 10.5273 256.01 10.2461C256.244 10.1055 256.49 10.0352 256.748 10.0352C257.053 10.0352 257.346 10.082 257.627 10.1758C257.932 10.2461 258.225 10.3047 258.506 10.3516C258.717 10.5625 258.869 10.7969 258.963 11.0547C259.08 11.3125 259.15 11.582 259.174 11.8633C259.197 12.1211 259.197 12.3906 259.174 12.6719C259.174 12.9297 259.174 13.1875 259.174 13.4453C259.174 13.9609 259.232 14.4648 259.35 14.957C259.467 15.4492 259.525 15.9297 259.525 16.3984C259.525 16.5156 259.479 16.6094 259.385 16.6797C259.314 16.7266 259.279 16.8789 259.279 17.1367C259.279 17.3945 259.303 17.6641 259.35 17.9453C259.396 18.2266 259.42 18.5078 259.42 18.7891C259.42 19.1172 259.373 19.457 259.279 19.8086C259.186 20.1602 259.104 20.5 259.033 20.8281C260.439 20.7109 261.881 20.5352 263.357 20.3008C264.834 20.0664 266.24 19.6914 267.576 19.1758C267.6 19.1289 267.611 19.0586 267.611 18.9648C267.611 18.8242 267.6 18.6836 267.576 18.543C267.553 18.4023 267.541 18.25 267.541 18.0859C267.541 17.8047 267.635 17.582 267.822 17.418C267.705 16.7617 267.623 16.1055 267.576 15.4492C267.529 14.793 267.506 14.1367 267.506 13.4805V11.4766C267.506 10.8203 267.494 10.1641 267.471 9.50781C267.658 9.39062 267.857 9.33203 268.068 9.33203C268.326 9.33203 268.561 9.40234 268.771 9.54297C269.006 9.66016 269.275 9.71875 269.58 9.71875C269.791 9.71875 269.967 9.68359 270.107 9.61328C270.365 9.84766 270.541 10.1523 270.635 10.5273C270.729 10.9023 270.811 11.2891 270.881 11.6875C270.951 12.0859 271.021 12.4844 271.092 12.8828C271.186 13.2578 271.361 13.5625 271.619 13.7969L271.654 13.9023C271.654 13.9961 271.607 14.0664 271.514 14.1133C271.42 14.1602 271.373 14.2539 271.373 14.3945V14.5352C271.467 14.9102 271.537 15.2969 271.584 15.6953C271.631 16.0938 271.666 16.5039 271.689 16.9258C271.736 17.3242 271.795 17.7227 271.865 18.1211C271.936 18.4961 272.064 18.8477 272.252 19.1758C272.369 19.1523 272.521 19.1406 272.709 19.1406C273.178 19.1406 273.541 19.3047 273.799 19.6328C274.08 19.9375 274.326 20.2539 274.537 20.582ZM299.041 14.6406V14.7812C298.877 14.8281 298.795 14.9453 298.795 15.1328C298.537 15.25 298.268 15.3438 297.986 15.4141C297.705 15.4609 297.436 15.543 297.178 15.6602C296.92 15.6367 296.65 15.625 296.369 15.625C296.111 15.6016 295.854 15.5898 295.596 15.5898C294.893 15.5898 294.189 15.6133 293.486 15.6602C292.783 15.707 292.08 15.707 291.377 15.6602C291.049 15.8477 290.686 16 290.287 16.1172C289.912 16.2109 289.549 16.2578 289.197 16.2578C288.916 16.2578 288.67 16.2227 288.459 16.1523C287.896 16.4336 287.275 16.668 286.596 16.8555C285.939 17.043 285.271 17.2305 284.592 17.418C283.912 17.582 283.256 17.7812 282.623 18.0156C282.014 18.2266 281.475 18.5312 281.006 18.9297C280.959 19.2578 280.924 19.5859 280.9 19.9141C280.877 20.2188 280.865 20.5234 280.865 20.8281C280.865 21.1562 280.877 21.4609 280.9 21.7422C280.947 22.0234 281.029 22.3047 281.146 22.5859C281.264 22.6328 281.393 22.668 281.533 22.6914C281.697 22.7148 281.838 22.7266 281.955 22.7266C282.072 22.7266 282.189 22.7148 282.307 22.6914C282.424 22.6445 282.506 22.5625 282.553 22.4453C282.904 22.3984 283.256 22.3867 283.607 22.4102C283.959 22.4102 284.311 22.4102 284.662 22.4102C285.014 22.4102 285.354 22.3984 285.682 22.375C286.033 22.3516 286.373 22.293 286.701 22.1992C287.076 22.1055 287.439 22.0469 287.791 22.0234C288.166 22 288.529 21.9766 288.881 21.9531C289.232 21.9297 289.596 21.8945 289.971 21.8477C290.346 21.7773 290.732 21.6484 291.131 21.4609C291.436 21.5781 291.74 21.6367 292.045 21.6367C292.373 21.6367 292.689 21.6602 292.994 21.707C293.158 21.8242 293.287 21.9531 293.381 22.0938C293.498 22.2344 293.557 22.3984 293.557 22.5859C293.557 22.9141 293.439 23.2422 293.205 23.5703C292.971 23.8984 292.783 24.2031 292.643 24.4844H292.256C291.693 24.4844 291.143 24.5664 290.604 24.7305C290.088 24.8711 289.561 25.0469 289.021 25.2578C288.506 25.4453 287.979 25.6211 287.439 25.7852C286.924 25.9258 286.385 25.9961 285.822 25.9961C285.729 25.9961 285.67 26.0547 285.646 26.1719C285.646 26.2656 285.623 26.3359 285.576 26.3828C285.459 26.3594 285.283 26.3477 285.049 26.3477C284.51 26.3477 283.994 26.4062 283.502 26.5234C283.01 26.6406 282.506 26.6992 281.99 26.6992C281.85 26.6992 281.709 26.6992 281.568 26.6992C281.428 26.6758 281.287 26.6523 281.146 26.6289C281.029 26.8164 280.877 26.9453 280.689 27.0156C280.502 27.0625 280.326 27.1562 280.162 27.2969C280.092 27.5078 280.045 27.7656 280.021 28.0703C280.021 28.375 280.01 28.6914 279.986 29.0195C279.986 29.3242 279.963 29.6172 279.916 29.8984C279.869 30.1797 279.775 30.4023 279.635 30.5664C279.658 30.6836 279.752 30.7305 279.916 30.707C280.08 30.6602 280.162 30.7305 280.162 30.918C280.162 31.1289 280.139 31.3516 280.092 31.5859C280.045 31.8203 280.021 32.0547 280.021 32.2891C280.021 32.7344 280.068 33.2266 280.162 33.7656C280.279 34.2812 280.443 34.7617 280.654 35.207C280.889 35.6523 281.193 36.0273 281.568 36.332C281.943 36.6133 282.412 36.7539 282.975 36.7539C283.35 36.7539 283.701 36.6836 284.029 36.543C284.357 36.4023 284.627 36.168 284.838 35.8398L285.014 35.8047C285.107 35.8047 285.189 35.8164 285.26 35.8398C285.354 35.8633 285.447 35.875 285.541 35.875C285.682 35.875 285.857 35.793 286.068 35.6289C286.303 35.4414 286.549 35.2305 286.807 34.9961C287.088 34.7617 287.369 34.5391 287.65 34.3281C287.932 34.0938 288.201 33.9297 288.459 33.8359C288.623 33.5078 288.775 33.1797 288.916 32.8516C289.08 32.5234 289.314 32.2656 289.619 32.0781V31.0586C289.854 30.8008 290.1 30.5664 290.357 30.3555C290.639 30.1445 290.85 29.875 290.99 29.5469C291.107 29.5938 291.213 29.6289 291.307 29.6523C291.424 29.6758 291.541 29.6875 291.658 29.6875C291.775 29.6875 291.893 29.6758 292.01 29.6523C292.15 29.6289 292.279 29.5938 292.396 29.5469C292.584 29.8047 292.725 30.0977 292.818 30.4258C292.936 30.7305 293.076 31.0234 293.24 31.3047C293.029 31.7266 292.783 32.2305 292.502 32.8164C292.221 33.4023 291.916 33.9883 291.588 34.5742C291.26 35.1602 290.908 35.7227 290.533 36.2617C290.182 36.7773 289.83 37.1758 289.479 37.457C289.408 37.5273 289.256 37.6094 289.021 37.7031C288.764 37.8906 288.529 38.0664 288.318 38.2305C288.107 38.418 287.908 38.6289 287.721 38.8633C287.041 39.0742 286.385 39.3555 285.752 39.707C285.143 40.0586 284.533 40.3984 283.924 40.7266C283.643 40.6562 283.338 40.6211 283.01 40.6211C282.729 40.6211 282.447 40.6328 282.166 40.6562C281.885 40.7031 281.58 40.7266 281.252 40.7266C281.158 40.6094 281.018 40.5273 280.83 40.4805C280.666 40.457 280.607 40.3398 280.654 40.1289C279.857 40.082 279.213 39.8594 278.721 39.4609C278.229 39.0859 277.807 38.6172 277.455 38.0547C277.127 37.4922 276.857 36.8828 276.646 36.2266C276.436 35.5703 276.213 34.9375 275.979 34.3281V34.2227C275.979 34.1055 276.025 34.0352 276.119 34.0117C276.213 33.9883 276.26 33.918 276.26 33.8008C276.26 33.7539 276.248 33.7188 276.225 33.6953C276.154 33.4375 276.096 33.2148 276.049 33.0273C276.002 32.8398 275.979 32.6172 275.979 32.3594C275.979 31.9844 276.002 31.6211 276.049 31.2695C276.096 30.8945 276.119 30.5195 276.119 30.1445C276.119 29.7695 276.072 29.4414 275.979 29.1602C276.072 29.043 276.154 28.8906 276.225 28.7031C276.271 28.4922 276.307 28.2812 276.33 28.0703C276.354 27.8594 276.365 27.6484 276.365 27.4375C276.389 27.2266 276.424 27.0391 276.471 26.875C276.377 26.6172 276.295 26.3945 276.225 26.207C276.154 25.9961 276.119 25.75 276.119 25.4688V25.2227C276.354 24.8242 276.553 24.4141 276.717 23.9922C276.881 23.5703 277.057 23.1367 277.244 22.6914V22.5859C277.244 21.9062 277.221 21.2266 277.174 20.5469C277.127 19.8672 277.104 19.1875 277.104 18.5078V17.8398C277.104 17.6055 277.115 17.3828 277.139 17.1719C277.326 17.0781 277.467 16.9492 277.561 16.7852C277.654 16.6211 277.795 16.4922 277.982 16.3984H279.143L279.354 16.0469C279.424 15.9297 279.471 15.8008 279.494 15.6602C279.752 15.5898 279.998 15.4961 280.232 15.3789C280.49 15.2383 280.725 15.0977 280.936 14.957C281.264 14.7695 281.557 14.6055 281.814 14.4648C282.096 14.3008 282.365 14.1719 282.623 14.0781C282.904 13.9609 283.197 13.8672 283.502 13.7969C283.807 13.7266 284.158 13.668 284.557 13.6211C284.744 13.6211 284.861 13.5859 284.908 13.5156C284.979 13.4453 285.072 13.3633 285.189 13.2695C285.471 13.3164 285.752 13.3633 286.033 13.4102C286.314 13.4336 286.596 13.4453 286.877 13.4453C287.439 13.4453 287.967 13.3398 288.459 13.1289C289.162 13.1289 289.854 13.1172 290.533 13.0938C291.236 13.0703 291.939 13.0586 292.643 13.0586C293.252 13.0586 293.861 13.082 294.471 13.1289C295.08 13.1758 295.678 13.2578 296.264 13.375C296.475 13.3047 296.709 13.2695 296.967 13.2695C297.248 13.2695 297.529 13.3047 297.811 13.375C298.115 13.4219 298.408 13.4219 298.689 13.375C298.713 13.6328 298.771 13.8555 298.865 14.043C298.982 14.207 299.041 14.4062 299.041 14.6406ZM320.486 13.9023C320.439 14.1836 320.369 14.4297 320.275 14.6406C320.205 14.8281 320.193 15.0859 320.24 15.4141C320.006 15.4375 319.818 15.5195 319.678 15.6602C319.561 15.7773 319.455 15.918 319.361 16.082C319.291 16.2461 319.209 16.4219 319.115 16.6094C319.045 16.7734 318.951 16.9258 318.834 17.0664C319.021 17.9102 319.127 18.7656 319.15 19.6328C319.174 20.5 319.232 21.3555 319.326 22.1992C319.443 23.2773 319.619 24.3438 319.854 25.3984C320.111 26.4297 320.24 27.4844 320.24 28.5625C320.24 28.8906 320.229 29.1953 320.205 29.4766C320.205 29.7578 320.205 30.0508 320.205 30.3555C320.205 30.543 320.205 30.7422 320.205 30.9531C320.229 31.1406 320.24 31.3281 320.24 31.5156C320.24 32.1953 320.146 32.875 319.959 33.5547C319.795 34.2344 319.666 34.9141 319.572 35.5938C319.291 35.8516 319.045 36.1328 318.834 36.4375C318.646 36.7422 318.447 37.0234 318.236 37.2812C318.025 37.5391 317.779 37.7617 317.498 37.9492C317.217 38.1602 316.865 38.3008 316.443 38.3711C316.373 38.6055 316.232 38.7812 316.021 38.8984C315.834 39.0156 315.67 39.1797 315.529 39.3906H315.459C314.873 39.3906 314.369 39.3086 313.947 39.1445C313.525 38.9805 313.127 38.793 312.752 38.582C312.4 38.3711 312.037 38.1484 311.662 37.9141C311.287 37.6797 310.854 37.4922 310.361 37.3516C309.705 36.8125 309.107 36.2266 308.568 35.5938C308.029 34.9375 307.42 34.3516 306.74 33.8359C306.576 33.3672 306.354 32.9805 306.072 32.6758C305.814 32.3711 305.557 32.0195 305.299 31.6211C305.182 31.457 305.088 31.3047 305.018 31.1641C304.971 31.0234 304.9 30.8594 304.807 30.6719C304.736 30.4844 304.619 30.3555 304.455 30.2852C304.314 30.2148 304.186 30.1328 304.068 30.0391C303.881 29.3125 303.611 28.6445 303.26 28.0352C302.908 27.4258 302.498 26.8398 302.029 26.2773C301.889 26.5352 301.771 26.8164 301.678 27.1211C301.607 27.4023 301.537 27.6953 301.467 28C301.396 28.2812 301.303 28.5742 301.186 28.8789C301.092 29.1602 300.963 29.418 300.799 29.6523V29.7578C300.799 29.875 300.846 29.9453 300.939 29.9688C301.033 29.9922 301.08 30.0625 301.08 30.1797C301.08 30.2031 301.068 30.2266 301.045 30.25C301.045 30.2734 301.045 30.2969 301.045 30.3203C300.928 30.4141 300.834 30.5312 300.764 30.6719C300.717 30.8125 300.6 30.8945 300.412 30.918C300.436 31.0352 300.447 31.1523 300.447 31.2695V31.5859C300.447 32.2656 300.365 32.9453 300.201 33.625C300.061 34.3047 299.99 34.9961 299.99 35.6992V36.1562C299.99 36.3203 300.002 36.4727 300.025 36.6133C300.072 36.7539 300.143 36.8945 300.236 37.0352C300.33 37.1758 300.377 37.3047 300.377 37.4219C300.377 37.5859 300.307 37.7383 300.166 37.8789C300.33 37.9961 300.518 38.125 300.729 38.2656C300.939 38.4062 301.127 38.5586 301.291 38.7227C301.479 38.9102 301.631 39.0977 301.748 39.2852C301.865 39.4961 301.924 39.7188 301.924 39.9531C301.924 40.3516 301.795 40.6328 301.537 40.7969C301.279 40.9609 300.963 41.0898 300.588 41.1836C300.236 41.2773 299.861 41.3594 299.463 41.4297C299.088 41.5234 298.771 41.6758 298.514 41.8867H298.408C298.127 41.8867 297.916 41.8047 297.775 41.6406C297.635 41.4766 297.424 41.3945 297.143 41.3945C296.697 40.668 296.393 39.8477 296.229 38.9336C296.064 38.043 295.982 37.1875 295.982 36.3672C295.982 35.3594 296.076 34.3516 296.264 33.3438C296.428 32.3359 296.639 31.3398 296.896 30.3555C297.131 29.3711 297.389 28.3984 297.67 27.4375C297.975 26.4531 298.256 25.4688 298.514 24.4844L298.549 24.3789C298.549 24.2617 298.514 24.1797 298.443 24.1328C298.396 24.0859 298.373 24.0156 298.373 23.9219C298.373 23.875 298.385 23.8516 298.408 23.8516C298.479 23.6172 298.549 23.3945 298.619 23.1836C298.713 22.9727 298.783 22.7383 298.83 22.4805C298.971 21.8242 299.064 21.1562 299.111 20.4766C299.182 19.7734 299.217 19.082 299.217 18.4023C299.24 17.7227 299.264 17.043 299.287 16.3633C299.334 15.6602 299.416 14.9688 299.533 14.2891C299.721 14.1016 299.896 13.9023 300.061 13.6914C300.225 13.4805 300.436 13.293 300.693 13.1289C301.162 13.1523 301.631 13.2227 302.1 13.3398C302.568 13.457 303.014 13.6445 303.436 13.9023C303.717 14.9102 303.904 15.918 303.998 16.9258C304.115 17.9336 304.303 18.9414 304.561 19.9492V20.0547C304.561 20.1719 304.619 20.2305 304.736 20.2305C304.877 20.207 304.982 20.2422 305.053 20.3359C305.006 20.4062 304.971 20.4883 304.947 20.582C304.947 20.6758 304.947 20.7695 304.947 20.8633V21.4609C304.994 21.6484 305.053 21.8477 305.123 22.0586C305.193 22.2695 305.346 22.3984 305.58 22.4453C305.697 23.1953 305.873 23.8867 306.107 24.5195C306.342 25.1523 306.611 25.7617 306.916 26.3477C307.221 26.9336 307.549 27.5195 307.9 28.1055C308.252 28.668 308.615 29.2656 308.99 29.8984C309.576 30.3438 310.08 30.8594 310.502 31.4453C310.924 32.0078 311.346 32.5586 311.768 33.0977C312.213 33.6133 312.705 34.0703 313.244 34.4688C313.807 34.8672 314.533 35.1133 315.424 35.207C315.541 35.1133 315.623 34.9844 315.67 34.8203L315.846 34.3281C315.916 34.1641 315.986 34.0234 316.057 33.9062C316.15 33.7656 316.279 33.6602 316.443 33.5898C316.49 32.9336 316.537 32.2656 316.584 31.5859C316.654 30.9062 316.807 30.2617 317.041 29.6523C316.924 29.4414 316.865 29.1836 316.865 28.8789C316.865 28.6445 316.877 28.4219 316.9 28.2109C316.947 28 316.971 27.7891 316.971 27.5781C316.971 27.1328 316.877 26.7695 316.689 26.4883C316.689 26.3242 316.701 26.1602 316.725 25.9961C316.748 25.8086 316.818 25.6328 316.936 25.4688C316.748 25 316.596 24.5078 316.479 23.9922C316.385 23.4766 316.338 22.9492 316.338 22.4102C316.338 22.1055 316.373 21.7891 316.443 21.4609C316.303 21.1094 316.209 20.6992 316.162 20.2305L316.021 18.7891C315.975 18.2969 315.904 17.8398 315.811 17.418C315.717 16.9961 315.541 16.6562 315.283 16.3984C315.424 16.1875 315.494 15.9414 315.494 15.6602C315.494 15.1914 315.424 14.7461 315.283 14.3242C315.143 13.9023 315.072 13.457 315.072 12.9883C315.072 12.6602 315.143 12.332 315.283 12.0039C315.799 12.0273 316.303 12.0859 316.795 12.1797C317.311 12.25 317.814 12.2852 318.307 12.2852C318.447 12.4727 318.611 12.625 318.799 12.7422C318.986 12.8594 319.186 12.9766 319.396 13.0938C319.607 13.1875 319.807 13.293 319.994 13.4102C320.205 13.5273 320.369 13.6914 320.486 13.9023Z"
            fill="#FF2FB8" />
    </g>
    <defs>
        <filter id="filter0_d_1_2" x="0.923828" y="0.578125" width="323.562" height="53.7383"
            filterUnits="userSpaceOnUse" color-interpolation-filters="sRGB">
            <feFlood flood-opacity="0" result="BackgroundImageFix" />
            <feColorMatrix in="SourceAlpha" type="matrix" values="0 0 0 0 0 0 0 0 0 0 0 0 0 0 0 0 0 0 127 0"
                result="hardAlpha" />
            <feOffset dy="4" />
            <feGaussianBlur stdDeviation="2" />
            <feComposite in2="hardAlpha" operator="out" />
            <feColorMatrix type="matrix" values="0 0 0 0 0 0 0 0 0 0 0 0 0 0 0 0 0 0 0.25 0" />
            <feBlend mode="normal" in2="BackgroundImageFix" result="effect1_dropShadow_1_2" />
            <feBlend mode="normal" in="SourceGraphic" in2="effect1_dropShadow_1_2" result="shape" />
        </filter>
    </defs>
</svg>